<?xml version="1.0" encoding="UTF-8"?>
<svg enable-background="new 0 0 1400 658" version="1.1" viewBox="0 0 1400 658" xml:space="preserve" xmlns="http://www.w3.org/2000/svg">
<style type="text/css">
	.st0{fill:#74A6C4;}
	.st1{fill:#D5E5FD;}
	.st2{fill:#7EC58E;}
	.st3{opacity:0.75;}
	.st4{fill:#423A6E;}
	.st5{fill:#FFFFFF;}
	.st6{display:none;}
</style>
				<path class="st0" d="m823.4 59.3h0.2v-0.1c-0.1 0.1-0.2 0.1-0.2 0.1z"/>
				<path class="st0" d="m1205.3 107.6c-0.8 0.2-1.7 0-2.7-0.5-0.8-0.4-1.5-0.9-2.3-1.3-3.3-1.6-6.6-3.6-10.1-4.6-2.4-0.7-4.8-1.2-7.1-1.8-1.7-0.5-3.5-0.9-5.3-1.5-3.9-1.4-7.7-3-11.6-4.3-5.9-2-11.8-3.7-17.6-4.9-1.2-0.3-2.5-0.6-3.8-1-1.9-0.6-3.7-1.1-5.2-0.9 0.1 0.9 1.1 1.3 1.7 1.8 1.7 1.5 1.7 1.6-0.2 2.5-3.8-2.4-7.7-3.5-11.5-4.2-1.1-0.2-2.2-0.5-3.3-0.7-2.5-0.6-4.9-1-7.1-0.7-2.3 0.3-4.9-0.1-7.6-0.9-3.6-1.1-7.3-2.2-10.8-4.4-1.8-1.1-3.3-1.4-4.9-1.4-2.1 0.1-4.2 0.1-6.5-0.3-5.8-1-11.7-2.1-17.5-3.4-1.5-0.3-3.1-1.2-4.6-1.9-2-0.9-3.9-2-5.9-3-1.1-0.5-2.1-0.8-3-0.5-1 0.4-2.3 0.1-3.5-0.6-3.7-2-7.4-2.3-11.1-3.6-2.4-0.8-4.8-0.8-6 0.7 1.7 3 1.5 3.5-0.8 4.3-1.5 0.5-3.1 0.5-5.1 0.1-1.2-0.3-2.5-0.5-3.7-0.9-2.5-0.8-4.4-0.8-6 0.3-1.5 1.1-3.7 0.9-6.3-0.4-1-0.5-2.2-0.9-3.2-1.5-3-1.7-6-3.6-9.1-5.3-1.7-1-3.6-1.8-5.4-2.4-4.2-1.4-8.3-2.3-11.8-1.3-0.6 0.2-1.4 0-2.1 0.2-2.8 0.5-5.9-0.1-8.9-1.5-4.3-1.9-8.2-2.4-12-1.9-1.9 0.2-3.8 0.1-5.7-0.8-3.2-1.4-6-1.4-8.8-1.2-1.7 0.1-3.4 0.2-5.1 0.2-0.9 0-1.8-0.2-2.7-0.4-1.4-0.4-2.4-2-1.9-2.9 0.3-0.5 0.8-0.9 1.3-1.1 1.5-0.7 3.1-1.2 4.6-1.8 1.6-0.7 1.3-2.1-0.7-3.3-2.2-1.3-4.4-2-6.7-2.4-2.8-0.5-5.7-0.8-8.3-0.8-3.1 0-5.9-0.9-8.7-2.7-0.7-0.4-1.3-0.9-2-1.3-2.8-1.5-4.9-1.6-6.8-0.2-1 0.7-2 1.4-2.7 2.4-1.3 1.7-3.3 2-5.8 1.5-1.8-0.4-3.7-0.8-5.3-0.7-5.2 0.3-10.6 0.1-15.3 1.5 0.1 0.3 0.1 0.6 0.2 0.8 0.3 0.4 0.7 0.7 0.9 1 0.3 0.5 0.7 1 0.7 1.5 0.1 2-2.3 3.1-4.6 2-1.6-0.8-2.8-0.9-4.2-0.4-1.7 0.6-3 1.4-4.2 2.6-2 2-4 4.1-7 5.3-1.1 0.4-2.1 0.6-3.4-0.2-0.4-0.2-0.8-0.5-1.3-0.6-1-0.3-1.8-0.2-1.9 0.8 1.6 3 3.1 5.9 6.8 7.5 4.7 3.9 6.2 10.8-0.4 13.1-1.9 0.7-2.6 0.4-4.5-1.8 1.1-1.8 2.1-3.7 3.1-5.4-2.8-3.5-5.4-6.8-8-10.2-1.4-1.8-2.6-3.7-4.2-5.3-4.4-4.5-5.4-4.7-10.5-1.7-0.2 0.1-0.4 0.3-0.6 0.5-0.9 0.9-1.1 2-0.3 3.3 0.7 1.2 1.4 2.5 2.2 3.9 0.9 0.4 1.9 0.9 2.9 1.3s2 0.8 3 1.3c2.9 1.5 3.3 2.6 1.7 4.8-0.4 0.6-1.2 0.9-1.6 1.1-2.1-1.1-3.9-2.4-5.7-2.9-5.1-1.2-10.1-2.9-15.1-4.6-1.2-0.4-2.3-0.6-3.4-0.4 0.4 0.9 0.9 1.7 1.1 2.6 0.3 1.4-0.7 2.1-2.4 1.7-0.9-0.2-1.8-0.5-2.6-0.4-2.9 0.4-5.7 1-8.6 1.3-1.6 0.2-3.4 0.1-4.7-1.1-1.5-1.4-2.8-1.2-4.5-0.6-3 1-5.7 2.6-8.4 4-1.4 0.7-2.9 1.2-4.4 1.7-1.2 0.4-2.4-0.1-3.5-0.7-1-0.5-1.6-1.2-1.7-2.3 0-0.5-0.4-1-0.7-1.7-1.2 0-2.3-0.1-3.4-0.1-0.5 1.7 0.7 2.8 1.1 4.1s-0.1 2.5-1.4 2.9c-0.7 0.2-1.5 0.2-2.2 0.4-2.1 0.5-4.4 0.8-6.1 2 0.7 4.4-0.9 4.7-5.2 4.9-0.1 0.7 0 1.7-0.5 2.2-1.3 1.5-4.3 1.9-6.2 0.9-3.3-1.7-6.4-3.7-8-6.8-1-2-2.4-3.6-4.7-4.4-0.3-0.1-0.7-0.2-0.8-0.4-0.3-0.5-0.6-1-0.5-1.5 0.1-0.4 0.5-1 1-1.2s1.2-0.2 1.8-0.2c3.5-0.1 6.9 0.8 10.2 2.2 4.7 2.1 8.6 1.3 11.4-2.4-1.5-1.7-3.8-2.4-5.8-3.2-3.7-1.5-7.4-2.8-11-4.3-1.2-0.5-2.4-0.8-3.5-0.2-2 1.2-3.5 0.5-5.2-0.9s-3.5-2.8-5.5-3.7c-2.4-1.1-5-1.8-7.6-2.7-0.5-0.2-1.2-0.1-1.8-0.1-2.2 0-4.5 0-6.7-0.1-4-0.1-7.8 0.2-11.3 2.1-2.7 1.5-5.4 2.8-8.6 3.4-1.1 0.2-2.2 0.9-3.3 1.3-1.6 0.6-2.8 1.6-3.5 3-0.8 1.7-1.9 3.1-3.9 3.8-0.5 0.2-0.9 0.7-1.2 1.2-1.1 1.8-2.1 3.6-3.2 5.4-0.7 1.1-1.5 2-2.3 3-1.8 2.3-4.9 3.4-7 5.4-2.4 2.3-5.2 3.7-8.8 4.2-4.5 0.7-7.3 4.9-6.2 8.7 0.2 0.8 0.5 1.6 0.4 2.4-0.5 3.2 1.1 5.5 3.8 7.3 2.5 1.7 4.2 1.8 6.8 0.3 1.7-1 3.3-2 4.9-3 2.3 1.6 3.9 3.4 4.7 5.7 0.7 2.1 1.4 4.2 2.1 6.2 0.7 1.9 1.8 3.4 4.1 3.9 4.8-2.1 8.3-4.7 8.7-9.5 0-0.3 0.2-0.5 0.3-0.8 0.3-1.5 1.1-2.7 2.7-3.6 1.8-1.2 3.8-2.3 4.4-4.6-1.4-1-2.7-2-3.9-3-4.6-4.1-3.3-10.5 2.7-12.6 3.7-1.3 6.1-3.6 8-6.4 0.8-1.1 1.6-2.3 2.5-3.4 1.4-1.5 2.9-1.8 4.9-1 1.5 0.6 2.2 1.9 1.9 3.8-0.3 2.3-1.4 4.3-3.1 6.2-1.4 1.6-2.8 3.2-3.7 5.1-2 3.9-0.8 6.1 3.5 8.3 3.4 1.7 6.7 2.4 10.2 0.9 3.8-1.6 7.3 0 10.8 0.9 1 0.3 1.3 1.5 0.6 2-0.9 0.7-1.8 1.4-2.8 2-2 1.3-4.2 1.7-6.5 0.4-2.1-1.2-4.3-0.9-6.4-0.5-0.9 0.2-1.6 1-2.7 1.7 1.1 1.5 2.1 2.7 3 3.9 1.3 1.7 1.3 2.4-0.3 4-0.5 0.5-1.3 0.7-1.8 1-2.2-0.6-3.6-2.9-6.4-1.8-1.4 1.8-1.8 3.8-0.6 6 0.8 1.5 0.5 3-1 4-2.3 1.6-4.6 3.2-7 4.9-2.8-2.8-5.9-2.3-9.2-1-2 0.8-4.1 1.5-6.2 2.2-3.1-2.1-6.3-2.7-9.9-1.3-0.3 0.1-0.6 0.1-0.9 0.1-1.4 0.1-2.6-0.2-3.2-1.3-0.4-0.7-0.6-1.4-0.9-2 1.1-1.6 2.4-2 4.2-1.8 1.8 0.1 3.4-1.9 3-3.5-0.2-0.7-1.4-1.4-2.2-1.2-0.6 0.2-1.1 0.5-1.7 0.7-1.6 0.5-3 1.4-4.7 1.4-1-1.2-0.5-2.2 0.3-3.1 1.1-1.3 1.3-2.6 0.5-4.1-3.9 0.5-4.4 3.4-6.2 5.3 0.3 1.5 1.2 2.5 1.1 4-0.1 1.2 0.9 2.4 1.4 3.7-0.4 0.6-0.7 1.2-1.1 1.8-1 1.6-2.5 2.5-4.7 2.3h-0.5c-2.9 0.3-5.2 1.1-7.2 3.4-2.4 2.7-5.6 4.9-8.6 7.3-0.4 0.4-1.1 0.6-1.7 0.7-1.6 0.2-2.7 1-3.3 2.2-1.3 2.3-3.6 3.9-5.8 5.6-1.2 1-2.6 1.7-4.4 1.1-1-0.3-1.9 0-2.7 0.6l-2.7 1.8c-1.4 0.9-2.9 1.4-4.5 0.5-0.3-0.1-0.6-0.3-0.9-0.3-1.3-0.3-2.3 0-2.9 0.9s-0.2 1.6 0.7 2.1c1.2 0.7 2.4 1.3 3.7 1.8 2.7 1 4.6 2.3 4.7 5 0 0.8 0.7 1.5 0.9 2.3 0.2 0.9 0.4 1.9 0.1 2.8-0.8 2.8-1.8 5.5-2.7 8.3-0.4 1.2-1.3 1.9-2.8 2-0.7 0.1-1.3 0.2-2 0.1-4.6-0.3-9.2 0.1-13.7-0.9-1.5-0.3-3.2-0.4-4.9-0.4-4 0-6.5 2-5.9 5.2 0.8 3.7-0.5 7.2-1.7 10.8-1 2.9-2.1 5.9-1.4 8.9 0.4 1.8 0.4 3.4-0.3 5.3 1 0.4 1.9 0.9 2.7 0.9 4.4 0 7.7 1.2 9.8 4.4 0.2 0.3 0.8 0.4 1.3 0.7 0.8-1.1 1.6-2.1 2.3-3 0.4-0.1 0.5-0.2 0.7-0.2 2 0 4-0.1 6 0 2.1 0.1 4-0.5 5.5-1.6 3.5-2.7 6.4-5.5 7.1-9.6 0.6-3.6 2.4-6.8 6.2-9.1 1.7-1 3.6-1.6 4.9-3.2 0.8-1 2.7-1.4 4-2 0-0.5 0-0.8-0.1-1.1-0.5-1.4-0.5-2.7 0.8-3.8 1.5-1.3 3.4-1.8 5.4-1.6 1 0.1 1.9 0.3 2.8 0.6 1.7 0.5 3.2 0.5 4.5-0.7 0.9-0.9 2-1.3 3.4-1.5 0.7-0.1 1.3-0.7 1.9-1.1 0.9-0.6 1.6-1.4 2.5-2 1.6-1 2.8-1 4.4 0.1 1.3 0.9 2.3 1.9 2.6 3.3 0.6 2.7 2.5 4.6 4.8 6.4 2 1.6 3.6 3.5 5.6 5.4 1 0.3 2.5 0.7 3.8 1.2s2.7 1.1 3.8 1.9c3.4 2.4 5.9 5.1 4.2 9.1-0.2 0.5 0.2 1.2 0.3 1.7h0.8c0.3-0.1 0.5-0.3 0.7-0.5 1.6-1.9 2-3.9 1.2-6.1-0.5-1.4 0.6-2.3 2.4-2.2 1.1 0 2.2 0.8 3.6 0-0.5-0.5-0.8-1.1-1.4-1.4-1.6-0.9-3.4-1.7-5.1-2.5-4.6-2.3-8.5-5.1-11.2-9-0.9-1.3-2-2.5-3.3-3.5-1.5-1-2.1-2.3-2.9-3.6-1.4-2.3-1.1-4.1 1.5-5.7 0.9 0.1 1.8 0.1 2.8 0.2 0.5 0.8 0.9 1.5 1.5 2.2 0.8 0.8 1.6 1.9 2.7 2.2 4.1 1.1 6.5 3.5 7.9 6.4 3.5 1.2 6.6 2.4 9.5 3.4 1.1 1.7 2 3.2 2.8 4.6 0.4 0.8 1.1 1.9 0.8 2.7-0.8 2 0.2 3.8 0.4 5.6s1.3 3 3.2 3.9 3.7 1.9 6 1.8c0.9-0.1 1.7 0.3 1.9 1 0.4 1-0.5 1.5-1.4 1.8s-1.8 0.5-2.9 0.8c0.1 2.9 1.9 4.9 4.3 6.7 0.4 0.3 1.5 0.1 2.3 0.2 0.3-1.4 0.2-2.7 0.8-3.7 1.4-2.5 0.5-4.8-0.9-7-0.5-0.9-1.2-1.6-1.7-2.5-1.6-2.7-0.3-4.8 3.4-5.2 0.6-0.1 1.3 0 1.8 0 0.3-0.3 0.6-0.5 0.8-0.7 1.3-1.7 2.9-2.4 5.4-1.3 3.2 1.5 6.4 0.2 9.6 0.1 0.6 0 1.2-0.8 1.9-1.3-1-1-1.8-1.8-2.5-2.7-0.9-1-1.4-2.2-1.1-3.5 0.9-3 1.5-6.1 3-8.9 2.2-4.3 6.2-7.8 9.6-11.4 1.2-1.2 4.1-1 4.5 0.5 0.6 2 2.8 2.6 3.9 4.2-0.3 0.5-0.7 0.9-1 1.4s-0.5 1.1-0.8 1.8c2.1 0.8 3.8 1.4 5.8 2.2 1.3-1.3 3.8-1.3 4.9-3-1.6-1.4-4.2-2.1-4.6-4.2 0.3-0.2 0.5-0.5 0.8-0.6 2.9-0.5 5.3-1.7 7.5-3.3 1.1-0.8 2.8-1.2 4.3-1.5 1.3-0.3 2.7 0.7 2.7 1.8 0 0.7-0.2 1.3-0.5 1.9-1.1 2.5-1.4 5.1-1.9 7.7 2.1 2.2 4.7 3.8 7.5 5 4 1.8 6.7 4.5 9.4 7.4 1.2 1.3 1.5 2.7 0.6 4.2-0.8 1.4-1.8 2.8-2.7 4.2-1.5 0.1-2.8 0.2-4 0.3-3.7 0.5-7.2-0.3-10.5-1.9-1.7-0.8-3.4-1.8-5.2-2.5-5.7-2.2-11.2-2.3-16.3 0.9-0.6 0.4-1.3 0.8-1.6 1-2.7 0-5-0.1-7.4-0.1-0.4 2.8-3 3.9-5.5 5.4-2.2-1.4-4.3-1.1-6.5-0.3 0 1.6 0 1.7 0.8 2.1 3.1 1.3 4.4 3.2 3.5 6-0.1 0.4-0.1 0.8 0 1.2 0.7 2.1 1.4 4.1 4.1 5.3 1.2 0.5 2.1 1.2 3.5 1.5 1.2 0.3 2.2 1.1 3.5 1.7 1.8-1.5 3.3-3.5 6.7-2.5 1 0.6 2.4 1.2 3.5 2 2.3 1.6 4.5 1.6 6.8 0.3 1.2-0.7 2.4-1.4 3.8-1.9 1.8-0.7 3.5-0.3 5 0.9s1.8 1.9 0.7 3.6c-1.1 1.6-1.3 3.3-1 5 0.3 1.6 0.8 3.2-0.9 4.6-0.4 0.3-0.3 1-0.2 1.5 0.3 0.9 0.6 1.8-0.3 2.6-0.4 0.4-0.5 1-0.6 1.5-0.2 2.1-0.4 4.2-0.6 6.2-3.5 2.4-3.5 2.4-7.3 2.3-1.5-0.1-3.2 0-4.5-0.4-2.8-1-5.2-0.4-7.8 0.3-1.1 0.3-2.2 0.7-3.4 1.1-1.7-0.5-3.5-1.4-5.7-0.8-0.5 0.1-1.5-0.1-1.8-0.4-1.1-1-2.7-1-4.1-1.4-2.2-0.6-4.5-1.3-6.6-2.1-4.4-1.7-8.7-3.5-13.1-5.3-3.8-1.5-6.7-0.4-7.7 2.7-0.2 0.6-0.2 1.3 0 2 0.2 0.9 0.7 1.7 1.1 2.6-2.1 1.8-2.8 4.2-5.4 5.7-1.3-0.7-2.6-1.4-3.8-2.1-2-1.1-4-2-6.5-1.9-2.3 0.1-3.5-0.9-3.9-2.5-0.7-2.9-3.1-4.4-6.3-5.4-3.1-0.9-6.2-1.9-9.4-2.6-1.2-0.3-2.2-0.6-2.9-1.4-0.6-0.7-1.1-1.4-1.8-1.9-2.2-1.9-2.7-3.9-1.5-6.3 0.5-1 0.8-2 0.4-3.2-0.4-1.3-0.6-2.6-0.7-4-0.2-2-1.3-3.2-3.3-3.7-3.1 0.9-5.7 1.9-8.4 2.3-5.1 0.8-10.3 1-15.4 0.2-1-0.2-2.1-0.3-2.9-0.1-4.9 1.3-9.9 2.4-14.2 5.2-4.7 3-9.9 4.1-15.6 2.3-1.4-0.4-2.6-1.2-3.9-1.7-0.8-0.3-1.8-0.4-2.7-0.5-0.5 0.5-0.8 0.8-1 1.2-2.3 3.9-5.6 7.2-10.2 9.6-0.9 0.4-1.8 0.9-2.4 1.5-1 0.9-2.2 1.9-2.5 3-0.9 2.9-2.6 5.7-2.8 8.7-0.1 2.1-1.3 3.9-3 5.6-2.4 2.3-4.8 4.7-8.1 6.3-6 5.2-11.3 10.8-14.3 17.5-0.9 2.1-2.2 4-4 5.7-1.1 1-1.8 2.3-2.4 3.6-1 2.2-1.6 4.5-2.5 6.7-0.6 1.4-0.6 2.6 0.2 3.9 1.4 2.2 1.9 4.6 2.2 7 0.5 3-0.3 6-0.6 8.9-0.3 3.3-1.3 6.4-4.3 9-1.1 0.9-1.1 1.9-0.5 3 1 1.8 2 3.7 2.9 5.4-0.9 1.6-1.7 3-2.4 4.2 0.9 1.5 1.7 2.8 2.5 4.1 0.2 0.3 0.5 0.8 0.9 0.9 3.1 0.6 4 2.8 5.5 4.5 1.2 1.3 2.4 2.6 3.8 3.8 1.7 1.4 3 3 3.6 4.9 0.3 1.1 0.6 2.1 0.8 3.2 0.7 3 2.3 5.7 5 7.9 3.2 2.7 6.4 5.3 9.7 7.9 0.8 0.7 1.9 1.1 3 1.5 3.7 1.5 7.6 1.5 11.5 0.5 2.3-0.5 4.6-1 6.9-1.6 2.7-0.7 5.4-0.8 8 0 3.5 1.1 6.7 0.5 9.8-0.9 3.7-1.6 7.6-3.1 11.4-4.6 6.2-2.5 11.8-2.1 16.8 2.1l0.4 0.4c0.7 1.9 0.4 4.2 2.3 6.1 1.5-0.2 3-0.5 4.5-0.6 7.5-0.5 12.5 3 13 8.9 0.2 2.8 0.2 5.7-1.2 8.4-0.9 1.7-1.4 3.6-2.1 5.4-1.7 4.5-0.3 8.3 3.6 11.7 3.1 2.7 5.6 5.8 7.8 9 1.3 1.9 2.2 3.9 2.5 6.1 0.4 3 1.3 5.9 3.3 8.5 1.6 2.1 2.1 4.4 1.5 6.7-0.7 2.4-0.1 4.6 0.7 6.8 0.5 1.3 1 2.6 1.4 3.9 0.8 2.5 0.5 4.8-1 7.1-1.1 1.7-1.9 3.5-2.9 5.2-1.7 3.1-2.2 6.5-3.3 9.8-0.8 2.4-1.2 4.8-0.9 7.2 0.5 4.4 1 8.9 4.6 12.7 1.9 2 2.9 4.5 3.7 7.1 1.1 3.4 2.4 6.8 3.6 10.2 0.5 1.6 1 3.2 1.4 4.7 1 3.6 1.1 7.3 1.2 10.9 0.1 4.4 0.8 8.6 4 12.3 1.8 2.1 3.2 4.4 4.2 6.8 0.9 2.1 1.8 4.1 3.3 5.8 2 2.3 2.8 4.7 1.8 7.6-0.4 1.2-0.2 2.7 0.1 4 0.7 2.6 2.7 4.2 5.7 4.8 2 0.5 3.8-0.3 5.4-1 3.7-1.7 7.5-2.3 11.5-1.5 2.3 0.4 4.4 0 6.3-1.2 3.5-2.2 7-4.3 10.4-6.7 2.4-1.7 4.3-3.7 5.9-6 1.5-2.1 3.2-4.2 4.8-6.2 0.8-1 1.8-2 2.4-3.1 1.6-2.9 3.4-5.6 6.8-7.6-0.4-1.9-0.7-3.8-1-5.6-0.4-2.1 0.1-4 1.4-5.9 1-1.4 2.3-2.7 4-3.6 1.5-0.8 3.1-1.5 4.7-2.4 4.4-2.4 5.7-6.1 3.4-9.9-0.8-1.3-1.6-2.6-2.5-3.9-1.9-2.6-1.3-5.1 1-7.5l4.5-4.5c2.4-2.3 4.7-4.7 4.7-8 1.5-0.5 2.8-1.1 4.2-1.5 3.8-1.3 7-3.2 9.7-5.8 3.5-3.4 4.7-7.2 3.8-11.4-0.3-1.6-0.8-3.1-1-4.7-0.2-1.8-0.5-3.8 0.8-5.5 1.8-2.2 1.1-4-0.9-5.8-1.7-1.5-2.6-3.3-3-5.4-0.4-2.5-0.9-5-1.2-7.5-1.1-8.7 1-16.8 7.4-24.3 4.3-5.1 8.1-10.4 12.2-15.5 3.1-4 6.9-7.4 12.1-9.7 3.5-1.6 5.8-3.7 6.9-6.7 0.8-2.2 1.6-4.4 2.9-6.4 2.9-4.4 5.7-8.9 7.7-13.6 0.4-1 1.2-1.9 1.8-2.9 0.9-1.6 2-3.1 2.8-4.7 0.5-1.2 1-2.6 0.8-3.9-0.3-2.1-1.2-4.1-1.9-6.4-1.1 0.5-2 0.8-2.7 1.3-1.5 1-3.2 1.5-5 1.9-5.5 1-10.9 2.1-16.4 3-4.9 0.9-8.3-0.7-8.6-4.5-0.4-4.2-3.2-7.2-6.8-10-1.6-1.2-2.9-2.6-4.4-3.9-1.8-1.6-3.4-3.4-5.3-4.9-1.5-1.2-2.7-2.4-3-4.1-0.8-4.7-3.6-8.7-7-12.5-2.3-2.5-3.5-5.2-3.5-8.3 0-2.1-0.6-4-1.7-5.9-2.5-4.3-4.9-8.6-7.4-12.9-2.8-4.8-5-9.8-8.5-14.3-0.3-0.3-0.5-0.7-0.6-1.1-0.9-2.9-1.8-5.8-4.9-7.9-0.9-0.6-0.5-2.6 0.4-2.9 0.8-0.3 2 0.1 3 1.1 1.3 1.4 2.4 3 3.8 4.4 0.4 0.4 1.2 0.7 1.8 1 1.1-0.9 0.4-1.7 0.4-2.5 0-0.7 0.2-1.4 1.2-1.5s1.7 0.4 2 1c0.6 1.3 1.2 2.5 1.5 3.9 0.6 2.8 1.8 5.5 3.7 8 1.7 2.2 3.2 4.5 5.1 6.6 4.8 5.1 8.2 10.6 10.2 16.7 0.9 2.6 2.3 5.1 3.9 7.5 2.1 3.1 4.6 6 6.8 9 1.3 1.7 2.3 3.6 3.8 5.3 1.8 1.9 2.5 3.9 2.5 6.3 0 4.9 1.6 9.6 4.5 13.9 1.5 2.2 3.6 2.5 5.9 1.4 3.4-1.5 7-2.8 10.4-4.3 2.5-1.1 4.8-2.5 7.2-3.7 1.9-0.9 3.7-1.8 5.7-2.6 1.2-0.5 2.5-0.8 3.7-1.2 1.9-0.7 3.5-1.7 3.8-3.5 0.4-2.4 2.4-3.4 5.1-3.8 7.3-1.1 11.2-5 13.8-10 1.3-2.4 2.7-4.8 4-7.2 1.1-2.1 2.6-3.9 4.8-5.4 1-0.7 1.8-1.5 2.7-2.4-0.5-0.8-0.9-1.6-1.5-2.2-1.5-1.3-3-2.6-4.7-3.7-2.8-2-6.4-3.2-8.7-5.5-0.2-1.8-0.3-3.5-0.7-5.3-0.2-1.1-1-1.9-2.8-2.2-0.5 0.9-0.7 1.8-1.3 2.5-0.7 0.9-1.7 1.6-2.5 2.4-0.3 0.3-0.6 0.7-0.8 1-1.2 2.2-3.5 3.3-6 4-2.6-1.3-5-2.5-7.5-3.8 0.2-0.6 0.4-1.1 0.5-1.6s0.4-1.1 0.2-1.5c-0.3-0.6-0.8-1.2-1.5-1.5-0.3-0.2-1.2 0.2-1.7 0.5s-0.7 0.9-1.1 1.3c-1.3 1.3-3.1 1.2-4-0.3-0.5-0.8-0.9-1.8-1-2.7-0.5-3.7-2.1-7-4.8-10.1-0.9-1-1.6-2.1-2.4-3.1-1.5-1.9-1.4-3.9-0.7-5.8 0.6-1.8 3.3-3.4 6.4-1.9 1.5 0.7 2.7 1.7 3.4 3 0.8 1.5 1.5 3 2.2 4.5 1.2 2.5 3 4.4 6.4 5.5 2.2 0.7 4.2 1.8 6.1 2.9 1.8 1.1 3.6 1.4 5.7 0.9 1.1-0.3 2.3-0.4 3.4-0.7 3.2-0.8 3.1-0.8 5.5 1.2 0.8 0.7 1.9 1.3 2.3 2.2 1.7 3.1 5 3.9 8.7 4.2 6.4 0.4 12.9 0.8 19.3 1.2 1.6 0.1 2.9-0.1 4.3-0.6 4.4-1.7 9.9-0.1 11.8 3.5 0.8 1.4 1.7 2.5 3.2 3.5 1.2 0.8 2.2 1.7 3 2.7 1.1 1.2 2.3 1.9 4.2 1.9 0.6 0 1.2 0.3 1.7 0.4 0.8 2.2-2.3 2.5-2.5 4.3 1 2.6 4.1 3.7 7.1 4.6 2.1 0.7 4-0.4 4.2-2.2 0.1-0.8-0.1-1.6 0.2-2.3 0.1-0.4 0.8-0.9 1.4-0.9 0.5-0.1 1.5 0.2 1.8 0.5 0.6 0.6 1.2 1.4 1.3 2.1 0.2 1.9 0.2 3.9 0.2 5.8 0 1.4-0.3 2.9-0.1 4.3 0.6 3.5 1.9 6.9 3.7 10.2 2.6 4.7 4.8 9.5 7.2 14.3 0.3 0.6 0.5 1.3 0.7 1.9 0.7 2.8 2.1 5.5 3.6 8.1 1.3 2.3 2.4 4.6 3.4 6.9 0.8 2 1.5 4 1.9 6 0.5 2 2 3.2 4.3 4 1.2 0.4 2.4 0.2 3.3-0.5 0.6-0.5 1.1-1 1.5-1.6 2.6-3.4 4.3-7.1 5.1-10.9 0.6-2.7 0.9-5.4 1.4-8.1 0.5-2.4 0.5-4.6-0.9-6.8-1.2-1.9-0.5-3.5 1.2-5 2-1.7 3.9-3.5 6-5.2 1.5-1.1 2.7-2.3 3.2-3.8 0.6-1.7 1.8-3.1 3.8-3.9 1.9-0.8 3.1-1.8 3.7-3.4 0.6-1.3 1.4-2.7 3.2-3.3 3.2-1.1 4.5-3.2 5-5.7 0.4-2.3 2.3-3.7 5.2-3.9 2.8-0.2 5.2-0.9 7.5-1.9 0.8-0.4 1.8-0.7 2.7-0.9 2-0.4 3.7 0.2 4.9 1.5 0.7 0.8 1.1 1.6 1.5 2.5 1.6 3 3.3 6 7.7 7.5 1.8 0.6 2.7 1.9 3.4 3.3 1.2 2.4 2.6 4.8 4 7.1 1.2 2 1.6 3.8 0.3 5.9-0.9 1.3-0.4 2.2 1 3 1.1 0.6 2.4 0.6 3.8-0.1 1.8-0.8 2.8-2.1 3.9-3.4s3-1.1 4.1 0.2c0.5 0.7 0.9 1.4 1.2 2.1 0.7 1.7 1.2 3.4 1.9 5.1 1.2 3 2.2 6.2 3.9 9 1.1 1.8 1.7 3.6 1.4 5.4-0.2 1.5-0.8 3-1.4 4.4-0.5 1.1-1.1 2.2-0.5 3.3 0.9 1.6 0.8 3.2-0.1 4.8-0.7 1.3-0.3 2.5 1.1 3.4 0.5 0.3 0.9 0.7 1.4 1.1 3.2 2.3 5.3 5.1 6.9 8.2 1.9 3.7 3.2 7.6 3.9 11.6 0.8 4.2 3.7 7.3 8.7 9.3 0.8 0.3 1.8 0.3 2.7 0.4 0.3-0.4 0.6-0.6 0.6-0.9 0.1-0.5 0.1-1 0-1.5-1.5-6.9-3.6-13.6-9.8-19.1-3.9-3.5-7.4-7.2-9.3-11.8-0.9-2.2-1.8-4.3-1.4-6.6 0.3-1.7 0.6-3.5 1-5.2 0.3-1.6 0.6-3.2-0.1-4.8-0.4-0.9-0.3-2 0-3 0.4-1.5 2.2-2.1 3.8-1.1 1.7 1 3.1 2.3 4.5 3.6 1.1 1 1.8 2.2 3.1 2.9 3.1 1.7 5.3 3.9 7 6.3 0.1 0.2 0.5 0.3 0.8 0.4h4.7c0.1 1.9 0 3.6 0.2 5.4 0.1 1.3 1.1 2.3 2.1 2.2 1.2-0.1 1.6-0.8 2-1.5 0.6-0.8 1.1-1.6 1.8-2.3 1.2-1.2 2.4-2.5 4-3.4 3-1.6 4.4-3.7 5.4-6.1 1.2-3 1.1-6.1 0.9-9.2-0.2-3.5-2.1-6.6-4.7-9.4-2.8-3-6.1-5.8-9.4-8.6-6.9-5.7-4.5-14.8 4.9-17.2 2.6-0.7 5.5 0.1 7 1.9 0.5 0.6 0.9 1.3 1.6 2.3 0.8-0.8 1.6-1.2 1.9-1.8 1.2-2.1 3.3-3.1 6.4-3.3 6.8-0.6 12.5-3 17.7-5.8 1.9-1 3.1-2.3 4.2-3.8 1.7-2.4 3-4.9 3.9-7.6l3.9-12c0.8-2.6 0.1-3.6-3.6-4.9-1-0.4-2.5-0.4-2.7-1.7 0.3-0.2 0.5-0.5 0.8-0.7 2.5-1.6 2.5-2.3-0.2-4-0.5-0.3-1.1-0.7-1.7-0.9-4-1.1-6.3-3.3-7.7-6.1-0.3-0.6-0.7-1.2-1-1.8-1-2-2.3-3.7-5.1-4.8-0.9-0.4-2.1-1.4-2.2-2.1-0.2-2.8-0.4-5.7 3.4-7.1 0.7-0.2 1.3-0.6 1.9-1 0.7-0.5 1.2-1 0.2-2-1.1-0.3-2.4-0.7-3.6-1.2-2.4-1-4.2-0.9-5.7 0.4-0.1 0.1-0.6 0-1 0.1-1-0.5-2-1.1-3.1-1.4-3.4-1.1-5.8-3.2-8.3-5.1-1.4-1-1.4-2.1-0.2-2.9 0.3-0.2 0.6-0.5 1.1-0.6 2.6-0.6 3.7-2.1 4.5-3.8 0.5-0.9 1.2-1.8 2-2.6s2.4-0.6 3.4 0.3c0.6 0.5 1.2 1.1 1.6 1.6 0.7 1.1 1.1 2.2 1.7 3.3 0.6 1.2 0.9 2.5 2.9 3.1 1.8-0.2 2.1-1.5 3.2-2.2 0.6-0.4 1.5-0.8 2.3-0.8 3.9 0.2 7.5 3 7.8 5.9 0.2 2.2 0.5 2.6 3.3 3.2 2 0.4 3.5 1.3 4.9 2.3 1.8 1.2 2.9 2.7 3.8 4.3 1.2 2 2.5 4 3.7 6 0.4 0.6 0.7 1.3 1.4 1.7 0.8 0.5 2.1 1.1 2.7 1 2.5-0.6 5.2-1 7-2.4 0.9-0.7 1.2-1.5 0.8-2.5-0.8-2.5-2.8-4.7-5.7-6.5-1.8-1.1-3.7-2.2-5.7-3.2-3.1-1.5-5.6-3.5-8.1-5.4-2.3-1.7-2.2-3.1 0-4.2 0.4-0.2 0.8-0.3 1.1-0.5 1.8-1 2-2.2 0.3-4-0.6-0.6-1.3-1.2-2-1.9 2.2-1.9 2-4.7 3.9-6.7 0.8 0.3 1.4 0.5 2 0.8 3.3 1.6 4.5 1.7 6.2 0 0.8-0.8 1.4-1.9 1.9-2.9 0.4-0.8 0.4-1.8 0.8-2.6 2.1-3.8 0.5-8.1-1.1-12.5-0.9-2.4-2.1-4.8-3.1-7.3-0.7-1.7-1.8-3.3-3.7-4.8-1.3-1-2.5-2.1-3.3-3.3-4.2-6.1-11-10.4-18.4-14.3-0.4-0.2-1-0.3-1.4-0.4-3.1 1.8-3.7 1.9-7.3 0.5-3-1.2-6-2.6-8.9-4.1-0.5-0.3-1-1.2-1-1.7s0.5-1 0.9-1.4c0.9-0.8 1.1-1.9 0.8-3.1-0.2-1-0.4-1.9-0.6-2.9-0.5-2.7 0-5.1 1.7-6.9 1.8-1.9 5-2.4 8.5-1.6 4.6 1.1 8.5 1.3 12.2 0.7 2-0.4 4-0.2 6.3 1.4 1.7 1.2 3.5 1.5 5.2 1.5 1.8 0 2.6-0.9 2.1-2.3s-1.1-2.9-1.4-4.3c-0.7-2.9 0.8-3.8 4.7-2.8 3 0.8 6.1 1.5 9 3.4 1.8 1.2 3.2 0.8 2.7-0.7-0.2-0.7-0.7-1.4-0.9-2.1-0.3-0.7-0.3-1.4 0.5-1.6 0.9-0.3 2 0 3.2 0.6 1.9 1.1 3.5 2.4 3.9 3.9 0.5 1.6 0.9 3.2 1 4.8 0.2 1.8 0.1 3.5 0 5.2-0.1 2.1 0.8 4.4 2.4 6.6 0.9 1.3 2 2.6 3.2 3.8 2.2 2.3 4.8 4.4 6.7 6.7 1.5 1.8 3.2 2.9 5.5 4 4.2 2.1 8.3 4.4 11.5 7.4 0.7 0.7 1.5 1.2 2.3 1.8 0.9 0.7 1.9 0.9 2.8 0.8 1.1-0.1 1.8-0.6 1.7-1.4 0-0.5-0.2-1.2-0.6-1.7-0.8-1.3-1.6-2.6-2.7-3.9-1.3-1.6-1.9-3-1.4-4.4 0.5-1.2 0-2.6-1.1-4-1-1.3-1.9-2.6-2.9-3.9-1.5-1.9-3.5-3.5-6.4-4.6-3.3-1.3-6.1-3.2-8.9-5.3-2.8-2-3.9-3.7-2.5-5.3 0.1-0.1 0.3-0.3 0.6-0.5 2.7 0.5 4.3-0.6 6.3-1.2 2.9-1 2.8-2.1 8.8 1.5 0.1 0.1 0.3 0.1 0.8 0.2 1-0.5 1.9-1.2 1.9-2.6 0-3 2.6-3.9 6.8-3.5 0.9 0.1 1.9 0.4 2.8 0.4 0.5 0 0.8-0.2 1.3-0.3-3-2.4-3-2.4-5.5-3.2-4.8-1.6-9.3-4.1-14-5.9-0.3-0.1-0.6-0.3-0.9-0.5-0.9-0.5-1.3-1.4-0.9-1.9s1.1-0.5 2.1-0.4c1.2 0.2 2.6 1.3 3.6 0.8-0.9-1-1.7-2-2.6-3 1.4-0.4 3-0.1 4.6 0.5 1.9 0.7 4.1 1.7 5.8 2 2.3 0.4 4.4 1.4 6.7 2.3 2.4 1 4.9 1.8 7.3 2.6 1.3 0.4 2.4 0.3 2.5-0.6-3.6-3.2-8-5.5-12.7-7.7-1 1-2.5 1.2-3.9 1.5zm-355 102.6c-0.8 0.4-1.7 0.7-2.6 1.2-4.7-1.5-8.9-3.6-12.5-6.3-2.4-1.8-4.2-4-2.8-6.9 0.3-0.7 0.3-1.6 0.5-2.3 0.7-5-1.7-9.2-5.8-13l-1.8-1.5c-0.5-0.4-1.1-0.7-1.4-1.2-0.7-1.3-1.1-2.9-2-4.1-1-1.2-2.8-2-3.8-3.2-1.1-1.3-1.1-2.9 0.2-4.1 3.3-3 6.6-5.8 9.9-8.7 0.4-0.4 0.9-0.7 1.5-1 2.4-1.2 4.8-1 7.2 0.6 3.3 2.2 5.1 5.1 6.8 8.1-1.2 1.5-2.6 1-3.8 0.8-2.8-0.3-3.6 0.2-3.8 2.4-0.2 1.8-0.2 3.7-0.3 5.5 3.1 2.2 6 4.2 9.1 6.4 0.6-0.2 1.4-0.4 2.3-0.7 2.8 1.7 4.6 3.8 4.9 6.5 0.2 2-0.2 2.4-2.9 2.6-0.5 0-0.9 0.1-1.5 0.1-0.1 1.5 1.1 2.6 2.2 3.5 2.2 2 3.1 4.2 3 6.7-0.1 1.3-0.1 2.7 0.2 4 0.3 2.2-0.6 3.6-2.8 4.6z"/>
				<path class="st0" d="m467.2 411.4c-0.8-0.2-1.6-0.4-2.5-0.6-3.9-0.8-7-2.4-8.7-5.4-2.1-3.7-5.7-5.4-10.6-5.6-2.4-0.1-4.7-0.6-7.1-1.1-2.5-0.5-4.7-0.4-6.6 1-0.6 0.5-1.6 0.7-2.5 1-1.5-1.1-1.8-2.3-1.5-3.5 0.6-1.7-0.4-2.8-2.1-3.8-1-0.6-2-1.2-3-1.7-3.5-2-5.1-1.9-8.1 0.2-1.2 0.9-2.4 1.8-3.8 2.5-1.3 0.7-2.9 0.7-4.4 0.4-0.5-0.1-1-0.6-1.7-1 0.8-0.5 1.4-0.8 1.9-1 1.8-1 2.9-2.5 3.7-4.1 0.9-1.7-0.7-3.2-3.1-3.2s-4.1 1.1-5.4 2.5c-0.8 0.8-1.2 1.8-1.9 2.8-0.9 1.3-2.2 2.3-4.1 2.6-1.1 0.2-2.5-0.5-2.7-1.4-0.3-1-0.1-1.9 0.7-2.6 0.6-0.6 1.3-1.2 2.1-1.7 3.3-2.3 5.2-5.3 6.6-8.4-0.7-1.1-1.5-2-1.9-3-0.9-2.3-1.8-4.7-2.3-7-0.4-1.6-1.3-2.7-2.8-3.8-2-1.5-4.2-2.9-5.7-4.8-1.1-1.4-2.9-2-4.9-2-2-0.1-4.1 0.1-6.1 0-1.5 0-3.2 0-4.5-0.5-5-1.9-10-4.1-11.9-8.5-1.6-3.7-5.6-5.7-9.2-7.8-3.2-1.9-7.3-3-10.9-4.4-1.3-0.5-2.6-0.5-4-0.4-1.3 0.1-2.9 0.3-4-0.1-3.3-1.2-6.8-1.8-10.3-2.5-1.4-0.2-2.6-0.8-2.9-2-0.4-1.7-2.4-2.1-3.9-2.9-1-0.5-2-0.2-2.8 0.4-1.1 0.8-1.7 1.8-3.2 2.4-3.1 1.3-3 1.9-0.7 4.3 0.2 0.2 0.3 0.5 0.4 0.8-0.3 0.6-0.6 1.2-1 1.8-0.7 1.1-0.9 2.9-3.1 2.6-2.1-0.3-1.8-2.1-2.4-3.2-0.2-0.3-0.3-0.8-0.1-1.1 1-3 0.2-6.4 3.2-9 0.3-0.2 0.1-1.2-0.3-1.3-0.4-0.2-1.4-0.1-1.8 0.1-1.1 0.8-2.2 1.6-3.1 2.5-1 0.9-1.8 2-3.5 2.2-4.9 0.5-7.5 2.9-9 6.1-1.4 3-3.7 5.4-7.7 7-1-0.8-2-1.6-3.2-2.4-3.4-2.2-7.5-3.8-13-0.7-0.8 0.4-1.6 0.8-2.5 1.2-1.2-0.5-2.3-0.9-3.3-1.5-4.6-2.8-8.1-6.1-7.6-10.9 0.4-3.5 1-6.9 1.6-10.4 0.4-2.6 1.2-5.1 0.5-7.7-0.3-1.4-1.1-2.5-3-2.8-1.1-0.2-2.4-0.2-3.5 0-3.4 0.7-6.8 0.3-10.2 0.2-2.3-0.1-3-0.8-2.8-2.5 0.9-5.7 2.8-11.2 7.1-16.2 1.1-1.3 2.1-2.8 2.9-4.2 0.5-0.8 0.8-1.7 0.9-2.6 0.1-0.7-0.3-1.4-1.3-1.4-2.5-0.1-5.1-0.6-7.5-0.1-3.6 0.8-6.6 2.5-7.4 5.7-0.2 0.6-0.6 1.2-0.8 1.9-1.1 3.2-3.9 5.3-7.7 6.6-2.7 0.9-5.6 1.5-8.4 2.1-1.1 0.2-2.5 0.2-3.5-0.2-1.7-0.7-3.4-1.6-4.8-2.6-2.6-2-3.7-4.6-4.3-7.4-1.3-6.7-0.1-13.4 2.9-20 1.6-3.6 3.9-7.1 4.7-10.8 0.6-3 3.3-5.3 6.9-6.8 4.6-1.9 8.9-4.2 13-6.7 1.5-0.9 3.1-1.3 4.9-1.3 2.4-0.1 4.6 0.3 6.4 1.4 0.7 0.4 1.6 0.8 2.4 1.1 4.5 1.6 4.5 1.5 7.7-2 0.2-0.2 0.4-0.5 0.6-0.7 3.1-3.2 6.9-3.9 10.6-1.8 2.5 1.5 5.1 2.2 8.6 1.9 3-0.3 5.4 1.3 5.7 3.5 0.2 1.9 0.2 3.9-0.3 5.8-1 4.1 0.7 7.6 2.8 11 0.4 0.6 1.3 0.9 2.1 1.3 2.4-1.5 3.3-3.3 3.5-5.1 0.3-2.2 0.4-4.4 0.2-6.6-0.3-3.5-0.8-6.9-0.5-10.4 0.2-3.1 1.6-5.9 4.7-8.3 2.2-1.7 4.3-3.4 6.4-5.1 1-0.8 2-1.7 3.2-2.2 4.1-1.8 7.5-4.4 11.3-6.5 4.5-2.4 7.6-5.5 10.4-9.5-1.5-3.1-0.6-6 2.5-8.8 1.1 0.2 1.9 0.4 2.8 0.7 0.3-0.6 0.6-0.9 0.7-1.3 0.6-2.9 2.9-4.7 6.3-5.8 2.5-0.8 4.6-2 6.1-4 1.6-2.1 4.1-3.5 7.2-4.2 2.5-0.5 4.9-1.4 7.4-2.1 3.8-1 6.2-2.9 6.6-5.9 0.2-2.1 1.7-3.2 4-4.1 7.3-2.9 14.6-5.8 21.8-8.8 1.7-0.7 3.3-0.9 4.8-0.6 0.4 0.1 0.8 0.4 0.8 0.8 0 0.3-0.3 0.9-0.6 1-1 0.5-2.2 1-3.3 1.4-1.9 0.8-3.7 1.7-5.1 3.1-0.7 0.7-1.4 1.6-0.6 2.1 0.4 0.3 1.5 0.3 2.2 0.1 1.3-0.4 2.6-1 3.7-1.7 2.5-1.6 5.2-2.4 7.9-3.3 2.9-1 5.6-2.4 8.3-3.7 0.6-0.3 1-1 1.5-1.6-1.6-0.8-3.1-0.2-4.5 0.4-1.9 0.8-3.6 0.6-5.1-0.2-0.6-0.3-1.3-0.6-1.9-0.9-2.2-0.9-2.6-2.5-1.9-4.6 0.5-1.5 1.3-2.9 2.7-4.1 0.9-0.7 1.8-1.4 2.9-2.3-0.6-0.8-0.9-1.6-1.6-2.1-0.5-0.4-1.4-0.5-2.2-0.4-3.6 0.7-7.2 1.6-10.4 3.8-1.2 0.9-2.5 1.6-3.9 2.3-1.2 0.6-2.3 0.4-2.8-0.5-0.7-1.2-0.4-2.6 1.2-3.6 1.1-0.7 2.4-1.3 3.7-1.6 3.6-1 7.1-2.4 10.3-4.4 2.4-1.5 4.9-2.2 7.6-2.2 3.5 0 7.1-0.1 10.6-0.2 5.1-0.1 10.2-1.3 15-3.4 3.7-1.6 7.2-3.6 10.8-5.3 2-1 3.5-2.4 4.9-4 1-1.1 0.9-2.1 0.4-3-0.9-1.8-4-2.4-6.9-1.3-1.2 0.5-2.4 1.1-3.7 1.7-0.9 0.4-1.7 0.3-2-0.3-0.2-0.4-0.1-1.1 0.2-1.5 1.2-1.4 2.6-2.8 3.9-4.2-0.5-1.3-1-2.6-1.4-3.9-0.6-2-0.8-3.9 1-6.2 0.5-0.6 0.8-1.7 0.5-2.3-0.8-2.1-0.4-4.3 0.3-6.6 0.2-0.9 0.1-1.8-0.1-2.7-0.2-0.7-1.3-1.1-2.2-0.7-0.8 0.3-1.6 0.6-2.2 1.1-1.6 1.2-3.1 2.5-4.6 3.8s-3.1 2.5-5 3.2c-1.7 0.6-2.8 0.3-3.6-0.7-1.3-1.6-1.5-3.4 0-5.5 2.1-2.9 1.1-4.8-0.5-6.7-2.7-3-6.9-4-11.6-4.3-1.8-0.1-3.5 0.5-4.9 1.9-1.8 1.9-3.7 3.7-5.2 5.7-2 2.5-4.2 4.8-7.1 6.7-2.7 1.7-4.1 3.8-3 6.1 0.8 1.8-0.1 3.6-2 5.2-2.8 2.3-5.6 4.6-9.2 6.2-2.5 1.1-4.9 2.5-7.2 3.9-1.9 1.2-3.8 2.6-4.3 4.4-1 3.7-4.4 6.5-7.2 9.5-2.2 2.4-5.3 2-5.8-0.2-0.6-2.6-0.6-5.2 1.9-8 1.2-1.4 1.9-3 2.6-4.6 0.5-1 0-1.7-1-2.1-0.5-0.2-1-0.4-1.6-0.4-4.3-0.1-7-2.1-9.5-4.2-1.7-1.5-3.5-2.7-6.7-2.4-2 0.2-2.9-0.9-2.9-2.3 0-0.7 0-1.5 0.2-2.3 0.3-1.3-0.2-2.1-1.2-2.8-1.4-1-1.3-1.7 0.2-3.2 1.2-1.3 2.6-2.6 3.7-3.9 2-2.5 4.7-4.2 7.9-5.4 1.9-0.8 3.8-1.6 5.6-2.6 2.9-1.6 5.8-3.1 8.8-4.2 2.3-0.8 3.8-1.9 4.1-4 0.2-1.7 2-2.6 3.4-1.9 1.8 0.9 3.8 0.6 6.1-0.3 1.9-0.7 3.8-1.2 5.7-1.9 0.9-0.3 1.8-0.9 2.9-1.4-0.3-0.9-0.6-1.6-0.9-2.4-0.4-1.3-0.2-2.3 0.9-2.9 1.2-0.7 2.2-0.5 2.9 0 1.5 1.2 3.4 0.8 5.5-0.6s4.3-1.9 6.5-2.3c2-0.3 4.1-0.5 6-0.5 2.5 0 4.7-0.9 6.8-2.5 2.5-2 5-4 7.4-6 1.3-1.1 1.2-2.8-0.1-3.2-3-0.9-6.2-0.7-9.7 1.8-1.1 0.8-2.1 1.7-3 2.6-2.3 2.3-5.2 3.7-8 5.3-0.9 0.5-1.9 0-1.6-0.9 0.3-1 0.8-2.1 1.3-3.1 0.3-0.7 0.8-1.3 1.1-2 0.4-0.8-0.1-1.5-1-1.5-0.4 0-0.9 0.1-1.4 0.2-1.7 0.3-2.2-0.4-1.9-1.9s1.1-2.9 2.4-4.3c0.9-1 0.7-1.8 0-2.4-0.7-0.5-1.5-0.7-2.8-0.1-2.3 1.2-4.6 2.3-6.8 3.5-0.7 0.4-1.3 0.9-2.5 1.8 0.7 0.5 1.4 0.8 1.8 1.4 1 1.6 0 3.5-2.6 4.6-1.2 0.5-2.6 1.2-3.7 1.3-1.9 0.2-3.4 1.1-5.1 2.1-1.9 1.1-3.7 2.3-5.4 3.3-0.4 0-0.6 0-0.7-0.1-0.2-0.1-0.5-0.2-0.6-0.4-1.5-2-3.9-2.2-7.3-1.2-2.8 0.8-5.2 0.5-7.4-0.1-1.2-0.4-2.3-1-3.5-1.3-1.1-0.3-2.5-0.6-3.8-0.2-4.5 1.2-9 2.8-12.1 6.9-0.1 0.2-0.6 0.3-1.1 0.6-1.9-1-0.5-4.2-3.7-4.3-6.3 2.2-9.6 2.4-11.7 0.5 0.6-0.8 1.3-1.7 1.9-2.5-3.9-0.7-7.7-1.4-11.4-2.1-2.5-0.5-5.2-0.5-8.4 0.5-1.9 0.6-3 0.4-4-0.3-0.9-0.6-1.7-1.3-2.6-1.9-1.9 0.8-3.5 1.5-5.3 2.2-1-1.8-3.2-1.3-5.8 0-1.3 0.6-2.6 1.1-3.9 1.6-4.4 1.8-8.9 3-13 3.7-2.9 0.5-5.3-0.3-7.8-0.5-3-0.3-5.8-0.7-8.3-1.5-1.7-0.5-3.8-0.6-5.9-0.6-4.5-0.1-9.4 0.4-13.5-0.1-6.6-0.8-14.2 0.4-22.3 2.4-5.7 1.4-11.2 2.8-17.2 5.6-2.5 1.2-5.2 2.4-7.5 2.7-3.9 0.6-7.9 2.5-11.6 3.5-3 2.9 0.6 2.6 0.5 4.2-1.1 0.7-2.1 1.5-3.2 2.1-3.6 2.2-6.9 3.5-9.5 2.5-1.5-0.6-3.7 0.1-5.9 0.9-2.5 1-5.1 2.1-7.5 2.5-0.3 0-0.7 0.3-1 0.4-0.8 0.3-1.6 1.4-1.1 1.6 2.7 0.7 5.1 1.9 9.9-0.2 0.5-0.2 1.1-0.5 1.5-0.5 0.7-0.1 1.5-0.1 2 0.1 0.3 0.1 0.3 0.6 0.4 1.2-2.2 1.3-4.3 2.6-6.4 3.8-0.9 0.5-2 1-3 1.3-3.2 0.9-6.5 2-9.5 2.5-4.7 0.8-9 3.1-13.7 5.8-0.6 2-2.2 4-4.4 6-2.2 2.1-5 3.4-7.8 4.5 0 0.4-0.2 0.8-0.1 0.8 2 0.7 3.7 1.8 7.4-0.2 0.3-0.2 0.7-0.3 1-0.3 0.6 0 1.3-0.1 1.6 0.1 0.4 0.4-0.2 1.1-0.9 1.6-1.9 1.5-4 2.5-6.3 3.3-7.2 2.7-14.3 5.5-21.5 8.2-0.5 0.2-1.1 0.7-2.1 1.3 1.2 0.1 2 0.3 2.8 0.2 1.1-0.2 2.4-0.5 3.6-1 4.8-1.7 9.5-3.4 14.3-5.8 4.3-2.1 8.8-4.2 13.2-5.4 3.3-0.9 6.4-2.2 9.6-3.7 3.8-1.8 7.7-3.6 11.5-5.3 2.3-1 4.4-1.7 6.1-1.1 1.6 0.6 3.8 0 6-0.9 1.5-0.6 3-1.2 4.5-2 4.3-2 7.9-2.5 11.3-1.9 3 0.5 6.1 0.9 9.1 1.5 1.1 0.2 2.1 0.7 2.9 1.2 2.4 1.6 4.5 3.4 8 4.1 2 0.4 2.4 1.6 1.6 3.4-0.4 1-0.4 2-1 2.9-1.7 2.4-2 4.4-1.5 6.4 0.2 0.8-0.1 1.8-1.2 2.5-3.3 1.8-4.2 4.4-6.6 6.5 0.3 1.1 0.6 2.1 1 3.1-1.5 1.2-2.7 2.3-4 3.4 0.1 2 0.4 3.6 2.5 4.5 1.4 0.7 2 1.8 2.1 3.3 0.1 1.6 0.6 3 1 4.5-1.4 1.6-2.7 3.3-4.2 5-0.8 0.9-1.9 1.8-2.9 2.6-1.1 0.8-2.2 0.7-2.9 0-0.6-0.6-0.3-1.3 0.2-2 0.1-0.2-0.2-0.4-0.3-0.6-0.9 0.1-1.8 0.2-2.8 0.4-0.7 0.9-1.4 1.6-1.9 2.3-2.2 3.2-4.7 6.4-7.9 9.2-3.1 2.7-6.3 5.4-9.5 8.1-2.2 1.7-4 3.5-4.8 5.5-0.7 1.8-2.1 3.4-4.1 4.8-1.8 1.3-3.4 2.7-5.5 4.3 1.3 1.4 0.3 3-1.5 4.6-1.4 1.2-1.3 2.3-0.9 3.5 0.5 1.7 1.9 3.3-0.4 5.5-0.4 0.3-0.1 0.9-0.1 1.4-0.1 2.2-0.1 4.3-0.3 6.5-0.5 5.5-0.1 5 4.5 7.5 1.3 0.7 2.1 1.6 2 2.9-0.1 2.4 0.2 4.9-0.4 7.3-0.9 3.6-0.6 6.9 1.1 9.9 0.9 1.6 1.5 3.2-0.2 5.3-1.3 1.6-1 3.2 0.5 4.4 0.4 0.3 0.8 0.7 1.2 1.1 2 1.9 3.2 4 1.7 6.8-0.7 1.3-0.4 2.5 1.1 3.3 1.1 0.6 1.5 1.4 2 2.3s1 2.1 2.8 2.2c1-0.6 0.7-1.2 0.3-1.7-1.3-1.8-1.6-3.8-1.8-5.9-0.4-3.6-0.4-7.4-1.6-10.8-0.7-1.8-1.5-3.6-2.4-5.4-1.5-3.2-1.7-6.5 0.2-10.1 0.7-1.4 2.2-2.2 4-2.4 1.8-0.1 3.4 0.5 3.6 1.7 0.2 1 0.1 2.2 0.1 3.3-0.1 4.8 0.2 9.5 3.8 13.5 1.4 1.6 1.8 3.6 0.8 5.7-0.8 1.7-0.1 3 1.1 4.1 0.8 0.7 1.9 1.3 2.7 2 0.9 0.8 1.9 1.6 2.5 2.6 1.5 2.3 2.8 4.6 4.1 6.9 0.8 1.4 1.2 2.8 0.7 4.4-0.7 2.1-1.5 4.2-2.3 6.3-0.4 0.9-0.3 1.7 0.6 2.4 3.2 2.6 6.1 5.4 10.4 7.2s8.6 3.8 12.6 6.1c2.4 1.4 5 2.5 7.6 3.6 2.6 1.2 5 1.3 7.6-0.2 2.2-1.3 4.8-1.5 7.4-1.2 0.9 0.1 2 0.5 2.5 1 1.4 1.4 2.9 2.8 3.9 4.4s2.4 2.7 4.3 3.6c1.1 0.5 2.2 1.2 3.3 1.8 4.9 2.9 6.2 3.1 12.4 2.3 0.5 0.7 1.2 1.5 1.5 2.3 0.7 2.1 1.8 4.1 3.6 5.9 0.9 1 1.4 2.1 1.3 3.3-0.1 1.7 0.9 3.1 2.6 4 2.1 1.1 3.4 2.5 4.8 4s3 3 5.4 3.5c2.3 0.4 4.1 1.1 5.5 2.6s3.7 1.8 6.3 1.5c0-1-0.1-1.9 0.1-2.7 0.1-0.6 0.5-1.3 1.1-1.6 1.7-0.9 3.8-1.1 5.9-0.9 1.8 0.1 3.3 0.8 4.1 2-0.7 3.2-0.6 3.7 1.1 7.1 2.9 6 2.6 11.9-0.5 17.5-2.3 4.1-5.3 7.9-7.8 11.9-1.8 2.8-3.4 5.7-4.9 8.6-0.5 1-0.5 2 0.3 3 0.7 0.9 1.3 1.8 3 2.1 0.8 0.1 1.6 0.9 2.3 1.3-1.9 3.1-3.6 6-5.1 8.7 0.8 1.8 1.7 3.2 2.2 4.8 0.7 1.9 1.8 3.5 4 4.7 2 1.1 3.3 2.5 4.3 4.2 0.7 1.1 1.6 2.2 2.3 3.3 2.6 4 5.8 7.9 7.4 12.2 1 2.7 3.3 4.9 5.9 6.9 2.7 2.1 4.3 4.4 5.5 7.1 1.8 4 4.8 7.3 9.8 9.8 5.5 2.7 10.7 5.9 15.5 9.5 3.6 2.7 6.8 5.6 8.9 9.1 2.7 4.7 4 9.6 5.4 14.5 0.2 0.8 0.2 1.6 0.2 2.3 0 1.7 0.1 3.4 0.1 5-0.1 1.6 0.4 3.1 1.7 4.6 1.9 2.1 2.7 4.4 2.7 6.6 0.4 8.9 4.3 17.9 8.6 26.7 3.7 7.5 5.9 15 7.3 22.4 0.6 3.3 1.2 6.8 4.9 9.9 1.1 0.9 1.6 2 1.3 3-0.8 2.8 1.7 5.5 3.9 7.9 1.9 2.1 4.5 4 6.9 5.9 1.1 0.9 2.1 1.8 2 2.9-0.2 2.4 1 4.5 3.6 6.7 1.9 1.6 3 3.3 2.7 5.2-0.2 0.9 0.4 2 0.6 2.9-0.9 0.5-1.7 0.9-2.3 1.4s0 1.6 0.9 2.1c0.6 0.3 1.2 0.7 1.8 0.8 1.8 0.4 3 1.5 4 2.8 1.9 2.5 4 5.1 5.7 7.6s3.5 4.8 5.7 7.2 4.1 5 7.3 6.7c0.8 0.4 1.4 1.4 2.1 2.1s1.4 1.3 2 1.9c1.2 0 2.1-0.2 3 0 1 0.2 2 0.9 3 1.3 1.5-1.1 2.6-2.3 3.1-3.9-1.5-2.3-2.9-4.3-4.4-6.6 0.3-3.3 0.7-6.8 1.2-10.4-0.3-0.3-0.9-0.8-1.2-1.3-1.2-2.3-3.1-3.9-5.7-5.1-0.8-0.4-1.8-1.2-2.2-1.9-1.7-2.8-3.7-5.8-1.8-8.2 0.3-0.4 0.2-0.9 0.4-1.3 0.7-1.3 1.2-2.5-0.3-4.3-0.5-0.6-0.3-1.5-0.1-2.2s0.8-1.1 1.1-1.7c-0.2-0.2-0.3-0.4-0.4-0.4-4.6-1.4-6.1-4.8-8-7.9-0.4-0.6-0.1-1.6 0.3-2 0.3-0.3 1.4-0.2 2.1 0.1 1.2 0.5 2.4 1.3 3.6 1.9 0.7 0.3 1.5 0.5 2.1 0.7 1-3.2 1-3.9-0.5-6.5-0.2-0.4-0.5-0.8-0.7-1.2-0.9-1.7-0.3-2.8 1.6-3.1 0.4-0.1 0.9-0.1 1.3-0.1 3.8 0.3 6.5-1 9.1-2.6 2-1.2 2.4-3 1.1-5.4-1.1-2.1-1.9-4.1-3.9-6-1.5-1.4-2.5-3.1-4.6-4.1-1.5-0.7-2.1-1.9-1.9-3.2 1-0.7 2.3-0.5 3.6-0.1 2.4 0.7 4.8 1.4 7.2 2.2 1.8 0.6 3 0.5 4.3-0.3 2.4-1.3 3.6-3.2 3.8-5.8 0.1-2.5 0.9-4.7 2.1-6.8 1.1-1.9 2-3.8 2.8-5.8 0.3-0.8 0.6-1.8 0.2-2.6-1.5-3.1-0.8-5.5 1-7.7 1.2-1.5 1.6-3.2 1.3-5.1-0.4-2.1-0.8-4.3-1.7-6.4-1.1-2.4-0.7-4.2 1.2-5.7 2.3-1.7 4.7-3.4 7-5.2 1.2-0.9 2.6-1.7 3.6-2.7 1.3-1.3 2.8-1.8 5-0.8 0.6 0.3 1.3 0.3 1.7 0.5 3.4-1.9 4.2-2.7 5.2-5.2l1.2-3.3c1.7-4.7 3.2-9.4 2.5-14.7-0.1-0.9 0.2-1.8 0.3-2.7 0.1-1 0.4-2.1 0.3-3.2-0.1-4.2 0-8.3-1.3-12.5-0.3-0.9-0.3-1.9-0.3-2.8-0.1-2.8 0.5-5.3 2.9-7.3 1.6-1.3 2.2-3.1 3-4.8 1.3-3.1 2.7-6.2 4.9-8.9 1.9-2.3 2.8-4.7 3.3-7.3 0.2-1.3 0.4-2.7 0.9-3.9 0.7-1.8 0.1-3.4-1-5.1-0.8-2.1-2.9-3.7-5.9-4.5zm-161-222.3c-0.7-3.4-0.4-3.8 3.2-5.7 2.5-1.4 5.2-1.6 8-2.2 0.5 0.7 1.1 1.4 1.7 2.1-3.8 3.3-7.4 6.4-12.9 5.8zm20.5-12.2c0.5-0.6 1.1-1.1 1.7-1.7 2.2-2.3 6.1-3.2 7.9-0.9 0.3 0.4 0.8 0.7 1.6 1.4-2.2 1.6-4 3-6 4.2-1.4 0.9-2.9 0.9-4.3 0.5-1.6-0.5-2.1-2.1-0.9-3.5zm-40.2 8.6c0.3-0.6 0.7-1.3 1.2-1.9 2.1-2.8 4.2-5.6 6.4-8.4 3-3.7 7.3-6 12.3-7.3 1.2-0.3 2.3-0.5 3.5-0.9 0.4-0.1 0.9-0.6 0.9-0.9s-0.4-0.7-0.7-0.7c-0.7-0.1-1.6-0.1-2.4 0.1-2.2 0.6-3.9 0.4-5.4-0.5-0.4-0.3-1-0.5-1.5-0.7-1.3-0.6-2.6-0.5-4.2 0.4-1 0.6-2.2 1.1-3.3 1.5-0.8 0.3-1.7 0.4-2.5 0.4-2.4 0-3.2-1.9-1.5-3.5 0.6-0.6 1.2-1.2 2-1.5 5.4-2.5 10.7-4.9 16.5-6.1 2-0.4 3.6-0.2 4.8 0.7 0.8 0.6 1.6 1.3 2.3 2 1 1.1 1 2.3 0.5 3.9-0.9 2.8-0.7 3.1 1.7 5.2 1.5-0.5 2.8-1 4.1-1.4 1.2-0.4 2.3-0.3 3.1 0.3 1.9 1.3 2.2 4.5 0.6 6.7-0.5 0.7-1.3 1.3-2.1 2.1-1.1-0.3-2-0.6-2.8-0.9-0.4 0.2-0.8 0.4-0.9 0.6-0.9 2.1-2.3 3.7-5.2 4.4-3.1 0.7-5.2-0.8-3.9-3.2 0.7-1.4 2-2.7 2.8-4.1 0.3-0.5 0.3-1.3 0-1.7-0.2-0.3-1.2-0.3-1.7-0.1-2.1 0.8-4.4 1.4-6.1 2.6-4.1 2.8-7.6 5.9-9.2 9.9-0.7 1.7-1.5 3.4-3.2 4.8-1.3 1.1-2.7 1.5-4.2 1.3-1.7-0.5-2.5-1.7-1.9-3.1z"/>
				<path class="st0" d="m1264.3 478.3c-1.9-1.9-2.8-4.3-3-7-0.2-3-0.9-5.8-1.5-8.7-0.6-2.7-2-5.1-5.5-6.5 0.2-3 1.5-5.8 3.2-8.5 2.4-4 1.6-7.3-0.8-10.2-2-2.5-3.5-5.2-3.2-8.5 0.1-0.7-0.2-1.3-0.3-2.1-0.8 0.2-1.6 0.2-2 0.5-0.8 0.7-1.6 1.5-1.9 2.2-1.4 2.9-3 5.8-4 8.7-0.9 2.7-2.3 5.3-5 7.8-1.2 1.1-2.2 2.4-3.4 3.5s-2.5 2.3-4 3.3c-1.6 1.1-3.2 1.2-4.2 0.2-2.1-2.2-4.7-4-7.5-5.8-0.8-0.5-1.3-1.1-1.9-1.7-2.7-2.8-2.4-5.5 1-9 1.1-1.2 2.5-2.3 2.7-3.7-1.6-1.6-4.7-1.7-7.1-2.5-2.3-0.7-4.6-0.5-7.1 0.9-1.6 0.9-3.4 1.5-5.1 2.2-5.6 2.1-9.4 5.2-11.3 9.4-0.1 0.2-0.2 0.5-0.3 0.7-0.7 1.3-2.4 1.8-3.6 1.1-1.4-0.9-2.7-1.9-4.1-2.9-1.6-1.2-2.2-1.1-4.8-0.3-3.7 1.3-6.5 3.3-9 5.7-2.1 2-4.1 4-7.4 5.2 0.1 1 0.3 1.8 0.1 2.6-0.1 0.4-0.7 0.9-1.2 1.2-0.3 0.2-0.9 0.1-1.3 0-0.3-0.1-0.4-0.3-0.6-0.4-1.6-0.7-2.5-0.5-3.6 0.9-1.6 2.1-3.3 4.1-4.7 6.2-2.7 3.9-7.1 5.8-12.2 6.6-2.4 0.4-4.6 0.9-6.8 1.9l-15 6.6c-2.7 1.2-5.5 2.4-7.1 4.5-2.1 2.7-4 5.6-4.1 8.4-0.1 2.7-0.3 5.3-2.2 8-0.5 0.7-0.5 1.5-0.8 2.2-0.5 1.5-0.7 3-1.5 4.5-2 4-2.5 7.9-2.5 11.7 0 0.6 0.1 1.2 0 1.8-0.2 2.8-1.4 5.6-4 8.4-1.4 1.5-3 2.9-4.4 4.3-1.7 1.7-1.7 3.2 0.1 3.9 1.7 0.7 3.8 0.7 6.2 0.1 2.6-0.6 5.1-1.8 7.5-3.1 2.3-1.3 4.7-2.1 7.1-2.3 7.5-0.4 14.8-3.5 22-6.7 3.2-1.4 6.3-2.7 9.6-3.4 3.6-0.8 7.2-1.7 10.7-2.5 1.1-0.2 2.3-0.4 3.4-0.5 5.4-0.4 9 1.7 9.4 5.4 0.1 1.4 0 2.9 0.1 4.3 0 0.6-0.2 1.4 0.8 1.4 3.5-2.4 6.9-4.7 10.2-6.9 0.4-0.3 1-0.6 1.4-0.6 0.7-0.1 1.6-0.1 1.9 0.2s0.1 1-0.1 1.5c-0.1 0.3-0.7 0.6-1.1 0.9-1.4 1.1-2.9 2.3-4.3 3.4-0.2 0.2-0.3 0.4-0.5 0.8 0.6 0.3 1.2 0.6 1.7 0.8-0.1 1.2-0.6 2.5-0.3 3.4 0.6 1.8 0 3.6-2.1 5.7-1.3 1.4-1.1 2.2-0.4 3.1 1.6 1.8 4.4 2.5 8 2.4 1.4-0.7 2.9-1.5 4.6-2.4 1.4 0.8 2.7 1.5 3.9 2.3 2.8-1.4 5.5-2.8 8.1-4.2 3-1.6 5.7-1.5 8.2-2 0.6-0.4 0.9-0.6 1.1-0.8 2.5-3 6.5-5.3 9.5-8 0.5-0.4 1.1-0.8 1.8-1.1 4-1.8 6.7-4.4 9.1-7 1.4-1.6 2.9-2.8 5.3-3.7 3-1.2 5.7-2.6 7.5-5 0.6-0.9 2-1.7 3-2.5s2.2-1.6 3.1-2.5c6.6-6.1 12.5-12.3 15-18.9 0.3-0.7 0.7-1.4 1.3-2 2.4-2.7 2.3-4.7 0.5-6.4 0.1 0-0.1-0.3-0.3-0.5z"/>
				<path class="st0" d="m620.3 10.3c-3.9 0.7-7.4 0.2-10.7-1.2-3.9-1.6-7.6-3.5-12.1-3.6-0.3 0-0.5-0.1-0.8-0.2-2.8-1-5.8-0.8-8.9 0.4-4.1 1.6-8.1 1.9-12.1 2-4 0-8.1 0.5-12.2 1.2-4.5 0.8-9.1 1.7-13.6 2.2-6.5 0.7-13.1 1.3-19.2 0.1-4.3-0.8-9-0.6-13.8 1.5-6.2 2.7-12.4 5.6-18.6 8.4-1.3 0.6-2.6 1-4 1.5-2.9 1.1-5.6 0.9-8.4 1.2-1.8 0.2-3.6 0.6-5.3 1.1-1.4 0.4-2 1.5-1.7 2.7 0.3 1.6 1.4 2.4 3.1 2.8 2.4 0.6 5 0.5 7.7 0.3 3-0.3 5.8-0.3 8.5 0.5 1.7 0.4 2.9 1.2 3.5 2.6 0.8 1.8 1.5 3.6 2.2 5.5 0.4 1.1 0.4 2.2-0.2 3.5-0.4 0.9-0.8 1.9-1.2 2.9 0.2 0.4 0.2 0.6 0.3 0.6 1 1 2.4 1.7 2.9 2.9s-0.1 2.8 0.2 4.2c0.2 1.1-0.3 2.1-1 3.1-2.2 3.4-5.3 6.2-9.1 8.2-2.3 1.2-3.9 2.8-5.1 4.8-1 1.6-1 3.2-1.1 4.8-0.1 1.5 0.2 3-0.5 4.4-1.5 2.8-1.2 5.3-1.1 7.9 0.1 1.5 0.6 2.8 1.9 3.6 2.3 1.4 4.7 2.7 7 4.1 3.4 2.2 4.4 0.7 7-1 1-0.7 1.9-1.7 2.6-2.7 1-1.3 1.9-2.7 2.8-4.1 2-3.4 4.7-6.3 7.8-9.2 2.6-2.4 5.6-4.2 9-5.4 2.8-1 5.5-1.5 8.3-1.5 2.9-0.1 5.6-0.9 8-2.6 2.6-1.8 5.2-3.6 7.7-5.5 3.2-2.5 6.7-3.9 10.3-2.8 1.8 0.5 3.4 0.5 5.3 0 1.7-0.5 3.3-0.9 5-1.3 3.6-0.9 7.1-2.5 10.8-2.7 0.2 0 0.4-0.4 0.8-0.8-0.4-1.2-1.3-1.7-2.9-1.5-1.5 0.2-3 0.5-4.5 0.5-1.7 0-2.2-1.7-0.9-3 0.6-0.6 1.5-1 2.2-1.5-0.1-1.1-0.1-2-0.1-2.8 2.4-0.6 2.4-0.7 3.4 0 1.6 1 3.1 2.1 4.7 3.2 1.4 0.9 2.9 0.9 4.7-0.4 0-0.4 0.1-1.1-0.2-1.4-0.9-1-1.8-1.9-2.9-2.6-1.6-1.1-3.3-1.9-4.9-2.9-0.6-0.4-0.9-1.1-0.4-1.7 0.4-0.5 1.3-0.7 1.9-1 0.3-0.1 0.6 0 0.9 0.1 2.2 0.8 4.3 0 6.4-1.2 2.4-1.4 4.7-2.9 7.1-4.2 1.3-0.7 2.2-1.5 2.5-2.9 0.5-1.9 1.8-3.2 3.7-4.3 0.6-0.4 1.2-0.8 1.9-1.3-0.3-0.6-0.6-1.1-0.6-1.5 0-1-0.3-2.4 0.2-3.1 2.1-2.7 4.1-5.5 7.8-6.5 1.7-0.4 3.5-0.7 5.2-1 2.4-0.5 4.9-0.7 7.4-2.5-0.9-0.5-1.3-1-1.9-1-0.9-0.2-1.8 0-2.7 0.1z"/>
				<path class="st0" d="m1280.4 411.8c-0.2-0.4-0.5-0.7-0.9-1.1-1.5-1.2-1.6-2.7-0.3-4.4 1.2-1.5 0.7-2.7 0-3.9-1.1-1.7-3.4-2.6-5.3-3.8-1.5-0.9-3.3-1.6-4.7-2.6-4.1-2.8-9-4.9-14.8-6-1.5-0.3-2.9-0.9-4.2-1.5-2.4-1.2-5-1.9-8.2-2.1-1.6 0.9-3.2 2-5 2.6-2.9 1-5.4 2.2-7 4.2-2.5-0.6-2.7-0.6-3-1.1-0.7-1.3-1.4-2.5-1.8-3.8-0.4-1.4-0.5-3-0.9-4.4-0.4-1.3-1.7-2.2-3.7-2.3-2.3-0.1-4.7 0.8-5.8 2-0.7 0.8-0.5 1.7 0.4 2.2 0.6 0.3 1.3 0.6 2.1 0.8 0.9 0.3 1.9 0.4 2.7 0.7 1.8 0.6 1.9 2 0.5 3.2-0.2 0.2-0.6 0.3-0.8 0.5-2.2 1.8-2 3.1 0.7 3.7 1.5 0.4 3.1 0.6 4.5 1.1 4 1.4 7.7 2.9 11.8 4.2 4.8 1.5 6.3 4.5 7.4 7.8-0.8 0.5-1.5 0.9-2.2 1.3-0.5 0.3-1.1 0.7-1.5 1.1-0.9 0.8-0.7 1.7 0.4 2 0.6 0.1 1.2 0.3 1.8 0.3 2.3-0.2 3.5 0.7 4.5 1.8 1.3 1.4 3.2 2.1 5.9 2 1.1 0 2.1 0.2 3.1 0.4 1.5-0.5 2.1-1.4 2.9-2.3 0.9-1.1 1.8-2.2 3-3.1 2.7-2.1 5.2-2.4 8.1-1.2 3.2 1.4 5.3 3.4 6.1 6 0.4 1.2 1.1 2.3 2.8 2.6 3.2 0.6 5.9 1.6 8.7 2.6 0.7 0.2 1.7 0.5 2.8-0.5-0.3-0.3-0.6-0.6-1-0.8-3.8-2-7.3-4.6-9.1-8.2z"/>
				<path class="st0" d="m1156.5 361.8c0.7-1 1.5-1.9 2.3-3-1.6-1.9-3-3.5-4.4-5.1-1.4-1.5-4.1-1.4-5.5 0.1-0.8 0.9-1.5 2-2.1 3-0.8 1.5-2.2 2.6-4.4 2.9-3.7 0.5-5.5 2.3-6.6 4.7-0.6 1.5-1.9 2.7-3.8 3.4-0.6 0.2-1.1 0.6-1.7 0.9-2.9 1.3-5.1 3-6.1 5.5-0.2 0.5-1 0.9-1.6 1.4-0.8-0.3-1.3-0.6-1.9-0.8-2.2-0.8-3.6-0.4-4.3 1.3-0.5 1.2-0.8 2.5-0.7 3.7 0.4 4.4 0.7 8.8 3.1 12.8 0.8 1.3 1.8 2.3 3.8 2.3 2.9-0.1 5.5 0.6 7.9 1.2 1.3-0.5 2.4-1 3.6-1.5 1.4 0.7 2.7 1.3 4.1 1.9 2.1 0.8 3.6 0.6 5.5-0.8 0.8-0.6 1.7-1.4 2.1-2.2 1.3-2.5 2.5-5 3.6-7.5 1.3-2.9 2.6-5.6 5.8-7.9 2.3-1.7 2.5-3.5 1-5.3-0.3-0.3-0.5-0.6-0.7-0.9-1.4-1.4-1.6-3.1-1.4-4.8 0-1.7 1.1-3.5 2.4-5.3z"/>
				<path class="st0" d="m455 67.2c-1.6-1.4-2.9-3-3.6-5 0.9-1.6 1.7-3.2 2.6-4.8-0.3-0.4-0.5-1-0.9-1.2-0.8-0.3-1.8-0.5-2.8-0.6-3.5-0.3-6.1-1.4-6.3-4.8 0-0.8-0.7-1.4-1-2.2-0.9 0.2-1.5 0.3-2.1 0.6-2.6 1-4.5 0.8-5.9-0.6-1-1-2.5-1.5-3.5-2.6-1.6-1.7-3.9-1.5-6.7-0.6-2 0.6-3.5 1.5-5 3-1.2 1.3-2.8 2.3-4.3 3.4-0.3 0.2-1.3 0.2-1.5 0s-0.2-1 0.2-1.3c1-1.1 2.2-2 3.3-3 0.7-0.6 1.2-1.3 2.2-2.5-5.8 0.7-10.1 3.3-14.2 6.3-1 0.8-2 1.8-2.6 2.8-1.6 2.3-0.8 3.8 2 3.8 1 0 2.1-0.2 3.2-0.2 3.6-0.2 7.3-0.6 10.6 0 2.1 0.4 4.4 0.1 6.8-1.1 2.3-1.1 4-0.8 5.2 0.3 0.9 0.8 1.8 1.7 2.1 2.8 1.2 3.7 2.9 7.1 6 9.6 1.2 1 0.2 2.9-1.9 3.6-2.4 0.8-4.6 1.2-6.5 0-1.3-0.8-2.3-0.6-3.7 0.5-1.3 1-2.4 2.2-3.6 3.3-1 1-2.4 1.7-3.5 1.4-2.5-0.7-5.6 0.7-8.2 0.4-0.9-0.1-2.4 0.8-3.6 1.4-0.3 0.2-0.7 0.8-0.6 1 0.1 0.4 0.5 0.8 0.9 0.9 1.4 0.3 2.8-0.4 4.1-1.1 2.3-1.2 4.6-2 6.8-1.4 0.3 0.8 0.5 1.7 0.9 2.4s0.9 1.4 1.6 1.9c1.2 0.8 1.8 1.8 2.2 3.2 0.9 3 4.1 4.2 7.9 3.3 1.2-0.3 2.1-1.5 1.4-2.2-0.9-1-2-1.9-2.9-2.9-0.6-0.6 0.2-1.8 1.2-1.9 1.1-0.1 2.1-0.1 3.1 0.1 1.1 0.2 2 0.8 3.1 1.1 1.6 0.4 3.2-0.4 3.8-2 0.7-1.8 0.8-3.5 0.5-5.1-0.1-0.9-0.3-1.8 0-2.7 0.3-1.1 1.1-2.1 2.5-2.6 1.3-0.5 2 0 2.7 0.6 1 0.9 2 1.9 3.2 2.6 1.5 0.9 3.2 0.4 5.1-1.1 1.8-1.4 2.6-3 1.9-4.4-0.4-0.6-1.3-1.6-2.2-2.4z"/>
				<path class="st0" d="m842.2 451.5c-1.6 1.8-3.1 3.6-4.8 5.3-1.8 1.8-3.9 3.5-5.8 5.2-1.1 1-2.2 1.6-3.8 1.8-4 0.7-6.2 2.6-6.8 5.7-0.4 2.1-0.4 4.3 0.5 6.3 0.4 1.1 0.8 2.3 1 3.4 0.3 1.5 0 2.9-1.4 4.1-2.3 2.1-3.5 4.7-4.8 7.2-2.5 4.7-1.9 9.2 0.4 13.6 2.1 3.9 7.1 4.5 11.1 1.5 1.7-1.3 3.3-2.8 4-4.7 0.8-2.5 2-5 2.4-7.5 0.6-3.2 1.8-6.3 2.9-9.4 0.4-1.2 0.8-2.4 1.3-3.5 1.8-4.1 3.5-8.2 5.6-12.3 2-4 3.6-7.9 3.8-12.1 0.1-2.8-0.3-5.5-2.4-8.6-1.4 1.8-2.2 2.9-3.2 4z"/>
				<path class="st0" d="m362.4 50.2c-1-0.3-2.1 0.3-3.1 1-0.6 0.4-1.1 0.9-1.6 1.3-1.2 1-2.3 2.1-3.5 3-0.4 0.4-1.1 0.5-2.1 0.9 0.2-1.3 0.4-2.5 0.5-3.5 0.1-0.8-0.7-1.2-1.7-0.7-1.5 0.7-3.1 1.5-4.4 2.2h-0.6c-3.1-0.9-6.1-2.1-10.5-0.9-0.4 0.1-0.7-0.3-1.1-0.5 1.8-1.9 3.5-1.2 5.3-2.3v-0.6c-2.2-1.4-5.8-1-8.5-1.9-0.3-0.1-0.9 0-1.3 0.1-6 1.8-12.1 3.7-17.9 7.7-1.5 1-2.9 2.1-4.2 3.2-0.8 0.7-1.1 1.5-0.8 2.2s1 0.9 2 0.5c1.8-0.7 3.5-1.4 5.2-2.2 2.9-1.4 5.7-2.5 8.6-3.3 0.4 0.7 0.6 1.4 1.1 1.9 0.6 0.6 2.4-0.2 2.6 1.1-0.7 0.7-1.5 1.3-2.5 1.4-1.1 0.1-2.1 0.2-3.2 0.4-0.7 0.1-1.2 0.5-1.3 1.3 1.9 0.3 4.2 0 6.4-0.2 0.9-0.1 1.9-0.3 2.8-0.4 1.2-0.1 2.1 0.4 1.6 0.9s-1.3 1.2-2 1.4c-1.9 0.5-3.8 0.8-5.6 1.1-1.1 0.2-2.1 0.3-3.2 0.5-1 0.2-1.8 1.4-1.4 1.9 0.1 0.2 0.2 0.4 0.4 0.5 2.6 0.8 4.1 2.9 7.9 2.3 0.6-0.1 1.1 0.2 1.5 0.3 1.4 0.5 3.1 0.2 4.9-0.8 1.7-0.9 3.4-1.7 5.1-2.7 2.5-1.5 4.6-2.1 6.6-1.4 0.7 0.3 1.4 0.5 2.3 0.6 1.1 0.1 2.3 0.2 3.5 0 2.9-0.5 5.7-1.8 8.4-3.3 1-0.5 1.5-1.5 1.1-2.1-0.4-0.5-0.9-1-1.3-1.5-0.8-1.1-0.8-2.3 0.9-3.8 1-0.9 1.8-1.9 2.6-2.9 1-1.6 1.2-2.5 0.5-2.7z"/>
				<path class="st0" d="m1093.8 392.3c-2.2-2.1-3.7-4.4-4.2-7.2-0.2-1.5-0.9-2.9-1.4-4.3-0.6-1.6-1.8-2.8-3.7-3.6-4.4-2-8-4.6-10.5-8-0.6-0.7-1.2-1.4-2-2.1-3-2.6-6-5.2-9-7.9-1.8-1.7-4.2-1.6-6.6-1.3-0.8 1.3 0.1 2.2 0.9 2.9 5.4 6 9.7 12.3 13.7 18.8 0.8 1.2 1.3 2.6 2.3 3.6 3.2 3.3 5 7 6.5 10.9 0.7 1.9 1.9 3.5 3.8 4.9 1.5 1.2 2.6 2.7 3.9 4 0.8 0.9 1.4 1.9 2.3 2.7 1.9 1.7 4.6 1.6 7 0 0.9-0.6 1.7-1.4 1.7-2.3 0-1.3 0.2-2.8-0.2-4-0.9-2.6-2.3-5-4.5-7.1z"/>
				<path class="st0" d="m503 8.2c-3 0-5.9 0.1-9 0.5-4.8 0.7-9.6 1.1-14.5 2.2-6.4 1.4-12.7 2.3-19 3.4-0.5 0.1-1 0.4-1.9 0.8 0.7 0.4 1.1 0.8 1.5 0.8 3.6 0.1 6.8 1.3 10.9 0.2 0.4-0.1 0.9-0.1 1.2 0 0.4 0.2 0.9 0.6 0.9 0.9 0 0.4-0.6 1.2-1 1.4-1.3 0.5-2.7 1.1-4 1.2-3.7 0.4-7.4 0.8-10.5-0.2-1.3-0.4-2.6-0.4-4.2 0.2-1.2 0.5-2 1.5-1.5 2.3 0.3 0.5 0.8 0.9 1 1.4s0.2 1 0.3 1.5c-2.4 1.7-3.9 0-5.9 1.1-0.1 0.8-0.2 1.5-0.4 2.7-1.5 0.2-2.6 0.2-3.6 0.6-2.7 1-5.1 1.2-7.1 0.3-0.5-0.3-1.6 0.1-2.4 0.2-0.4 1.4 0.4 1.8 1.3 2 1.2 0.1 2.5 0.2 3.9 0 3.4-0.5 6.4-0.3 9.1 0.7 2 0.7 4.1 0.4 6.4-0.9 4.3-2.4 8.7-4.8 12.9-7.2 3.6-2 7.2-3.7 11-4.3 2.2-0.3 4.5-1 6.7-1.4 7.7-1.2 15.1-4.8 22.4-8.2 1-0.5 1.9-1.2 2.8-1.8 0.4-0.3 0.7-0.9 1.2-1.6-0.9 0-1.4 0-2 0.1-2.1 0.4-4.5 1.1-6.5 1.1z"/>
				<path class="st0" d="m1208.8 221.6c-1.3-1.7-2-3.5-2.1-5.3-0.2-3.7-3.3-6.7-6.9-9.7-1.7-1.3-3.7-2.1-6.2-2.2 0.2 0.7 0.1 1.3 0.5 1.8 1.1 1.5 2.2 3 3.6 4.4 3.4 3.3 3.4 6.3 1.7 9.1-2.1 3.2-5.3 5.9-10.3 7.2-0.3 0.1-0.6 0-1.1 0.1-1.2-0.4-2.4-0.8-3.5-1.2-2 0.4-1.9 1.8-2.8 2.6s-2.2 1.4-3.6 2.3c1.3 0.4 2.3 0.9 3 0.9 2.3-0.1 4.5-0.4 6.7-0.6 3-0.3 5.9-0.1 8.5 2 0.3 0.2 0.9 0.2 1.4 0.3 0.4-1.1 0.8-2.1 1-2.8 3-0.4 5.6-0.5 7.9-1 3.8-0.9 4.8-3.3 3.1-6.4-0.2-0.5-0.5-1-0.9-1.5z"/>
				<path class="st0" d="m640.8 129.3c-0.3-0.4-0.7-0.8-0.9-1.3-1.2-2.7-2.5-5.4-3.6-8.1-0.8-1.9-2-3.6-4.4-4.3-0.4-0.1-0.8-0.4-1.2-0.6-0.8-0.6-1-1.4-0.4-2.2 0.8-1 1.6-2 2.5-3-2.9-1.3-2.9-1.3-3.6-3.8-0.7 0.1-1.5 0.1-2.3 0.2-0.8 1.6-1.7 3.1-2.3 4.6-0.3 0.6-0.4 1.5-0.1 1.9 1.2 1.7 0.9 3.5 0.6 4.6 1.2 2.8 3.5 0.4 5.3 1.8-0.1 2.1 1.4 4.5 0.1 6.9-1.9 0.9-3.6 1.7-5.2 2.4 0.4 1.5 0.7 2.6-1 3.5-0.4 0.2-0.5 0.8-0.9 1.4 1.7 0.4 3.1 0.5 4.4 1 0.6 0.2 1.1 0.9 1.3 1.5 0.1 0.3-0.6 1-1.1 1.2-1.9 0.8-3.9 1.4-5.9 2.1-0.6 0.2-1.1 0.6-0.6 1.5 3.1-0.7 6.4-1.5 9.6-2 3.4-0.6 7-0.5 10.4-1.3-0.7-3.3-0.6-3.3 2.3-5.3 0.6-0.4 1-0.9 1.4-1.3-0.9-2.2-2.9-0.9-4.4-1.4z"/>
				<path class="st0" d="m1184 374.8c-2.7 1.3-5.5 1.3-8.4 1-1-0.1-1.9-0.3-2.9-0.4-3.6-0.4-5.6 0.3-7.7 2.7-1.7 1.9-2.9 4-3.2 6.2-0.3 2.7-1.4 5.3-3.5 7.7-1.6 1.9-1.9 3.8-0.8 5.6 0.8 1.3 1.1 2.6 1 4.1 0 1 0.4 1.9 2.1 2 1.5-0.5 2.3-1.5 2.5-2.6 0.2-1.2 0.3-2.4 0.5-3.6 0.2-1.1 0.2-2.2 1.9-2.9 1-0.3 1.9 0.4 2.7 2 0.2 0.3 0.2 0.7 0.4 1 0.3 0.4 0.6 0.8 1 1.1 0.7 0.5 1.6 0.9 2.6 0.5 0.7-0.3 1.2-0.9 1.5-1.4 0.6-1.2 0.4-2.4-0.3-3.5-0.4-0.7-0.9-1.5-1.3-2.2-0.8-1.7-0.4-3.3 1.9-4.6 0.8-0.5 1.5-1 2.2-1.6 0.3-0.2 0.4-0.7 0.2-1-0.2-0.2-0.8-0.4-1.2-0.4-1.5 0.3-3 0.7-4.5 1-1.7 0.4-3.4 0.3-4.8-0.4-0.5-0.2-1.1-0.6-1.2-1-0.9-2.5 1.6-5.8 5.8-5.8 1.7 0 3.2 0.1 4.7 0.7 3.9 1.5 6.8 0.9 9.7-1.8 0.8-0.8 1.3-1.7 1.9-2.4-0.9-0.8-1.9-0.4-2.8 0z"/>
				<path class="st0" d="m1274.4 541.7c-5.6 3.4-11.1 6.8-17.1 9.3-2.5 1-4.9 2-7.4 3.1-3.8 1.6-7.5 3.2-11.3 4.9-2.4 1.1-4.4 2.6-5.9 4.2-2.1 2.3-1.5 3.5 1.3 3.1 1.8-0.3 3.8-0.8 5.7-1.8 4.5-2.3 9.2-4.5 13.2-7.5 2.3-1.8 4.8-3.1 7.5-4 2.1-0.7 3.9-1.7 5.7-3 2.1-1.6 4.4-2.9 7-3.9 1.4-0.5 2.9-1.4 4.3-2.3 2-1.2 3.2-2.5 3-3.7-0.1-0.3-0.2-0.6-0.3-1.1-2.4 0.5-4.1 1.7-5.7 2.7z"/>
				<path class="st0" d="m1313.1 523.6c-2.3 0.7-2.8 0.6-3.1-0.5-0.1-0.7-0.2-1.4-0.4-2-0.4-1.5-0.1-3.1 2.4-5.1 1.5-1.2 1.3-1.9 0.3-2.3-1.7 0.3-2.6 1.2-3.1 2.1-1.1 1.9-2.1 3.7-3.1 5.5-1.2 2.1-3.1 4-6.4 5.5-1 0.4-1.9 1-2.9 1.5-2.9 1.5-4.5 3.2-5 5-0.3 0.9-0.5 1.8-0.7 2.5-1.9 1.5-4.4 2.2-5.3 4 0.6 0 1.2 0.1 1.9-0.1 2.8-1 5.8-2.2 8.2-4 3.6-2.8 7.5-5.2 11.9-7.2 1.8-0.9 3.5-1.9 5.2-2.9 1-0.6 1.9-1.4 2.9-2-0.2-0.1-0.2-0.2-0.3-0.2-0.9-0.1-1.7 0-2.5 0.2z"/>
				<path class="st0" d="m295.2 284.1c-3.2-1.1-6.2-2.4-8.9-4.1-5.8-3.9-12.6-5.7-20.9-4.6-3.6 0.5-5.5 1.6-8.1 4.9 0.7 0 1.4 0.2 1.9 0 2.3-0.7 4.5-1.5 6.8-2.2 1.1-0.3 2.5-0.6 3.5-0.4 3.8 0.8 7.5 1.8 10.4 4.2 2.1 1.8 4.1 3.5 4.4 6.1 2.4 0.3 4.6 0.4 6.7 0.8 2.4 0.5 4.6 0.6 7-0.3 0.9-0.4 1.9-0.5 3.8-0.9-1-0.9-1.4-1.5-2-1.8-1.6-0.6-3.1-1.2-4.6-1.7z"/>
				<path class="st0" d="m1133.7 416.1c-1.9-0.6-4.1-0.8-5.8-1.6-1.8-0.8-3.3-2.1-5.1-3.3-2.4 0.7-4.4 1.2-6.3 1.9-1.7 0.6-3 0.4-4.2-0.2-0.5-0.2-1.1-0.5-1.5-0.9-2.7-2.1-6.5-1.8-10.2-1.5-1.8 0.1-3.5 1.1-3.7 1.9-0.2 1.2 0.8 1.8 1.9 2.3 2.6 1.1 5.6 1.8 8.9 1.5 3.5-0.3 6.6-0.1 9.4 1.1 1.3 0.6 3.1 0.8 4.7 0.7 2.6-0.2 4.9 0.2 7.3 0.6 1.6 0.2 3.2 0.5 4.8 0.6 0.5 0 1.4-0.4 1.6-0.8 0.3-0.4 0.2-1-0.1-1.3-0.3-0.4-1-0.8-1.7-1z"/>
				<path class="st0" d="m595.5 70.2c-0.9 0.3-1.7 0.8-2.5 1.1-0.4 0.2-0.9 0.3-1.3 0.5-1.1-0.3-2.2-0.6-3.4-0.9-2.2 1.2-4.4 2.2-7 2.3s-3.2 1-3 3.7c0 0.2 0.4 0.3 0.7 0.6 0.9-0.2 2-0.4 3.6-0.8 0.7 1.1 1.2 2 1.8 2.8 1 1.4 1.9 1.6 3.8 0.8 1.8-0.7 3.5-1.7 5.3-1.8 4.9-0.4 7.6-3.6 10.8-6.2-3.3-3.4-4.3-3.6-8.8-2.1z"/>
				<path class="st0" d="m1177.8 319.8c-0.6-0.2-1.3-0.4-2-0.4-3.1 0-5.1-1.4-6.7-2.9-1.8-1.8-1.7-3.8-0.4-5.8 0.7-1 1.1-2.4 0.8-3.5-0.6-2-1.8-3.9-3-5.8-0.2-0.4-1.3-0.7-2.1-0.8s-1.6 0.2-2.8 0.4c0 1.4 0 2.5-0.1 3.5-0.1 1.2-0.1 2.4-0.6 3.6-1.2 2.8 0 5.3 2.4 7.5 2.1 1.9 4.3 3.8 6.5 5.6 0.6 0.5 1.7 1.1 2.5 1.1 2.5-0.1 4.6 0.6 6.8 1.2 0.4 0.1 0.9-0.2 1.6-0.3 0.1-1.7-0.6-2.9-2.9-3.4z"/>
				<path class="st0" d="m434.4 149c-0.9-0.1-1.6-0.6-2.4-1-2.1-1.2-2.2-2.5-0.5-4.7 0.6-0.7 1.4-1.4 0.6-2.2-0.4 0.1-0.9 0.1-1.3 0.3-2.4 1.3-4.4 2.9-6 4.9-2.8 3.3-6.1 6.1-10.3 9.4 3.8-0.1 7-0.6 9.7 0.5 0.5 0.2 1.3 0 1.9 0 3.6 0.1 7.2-1.1 10.8-1.8 1.1-0.2 1.8-1.3 1.3-1.9-1-1.5-1.5-3.1-3.8-3.5z"/>
				<path class="st0" d="m618.9 118.6c-2.1-0.3-4.1 0.2-5.9 1.3-1.5 0.9-2.9 1.7-4.7 1.9-1.5 0.2-2.3 1.2-1.9 2.4 0.8 2.4 0.2 4.5-1.2 6.7-1 1.6-0.5 2.8 1.2 4.2 0.9-0.6 1.5-1 2.1-1.5 1.7-1.2 3.5-1.9 5.7-2 2.5-0.1 3-0.5 3-2.8s0.7-4.3 2.5-6.1c0.3-0.3 0.6-0.7 0.8-1 0.8-1.5 0.1-2.8-1.6-3.1z"/>
				<path class="st0" d="m1177.8 177.2c-2.6-1.8-4.8-3.9-6.7-6-0.3-0.3-0.3-0.7-0.4-1.1 0.8-0.3 1.7-0.6 2.5-0.9-1-2-2.9-3.4-5-4.5-3.6-1.9-6.3-4.3-9-6.8-2.1-2-4.3-3.9-6.5-5.8-1.1-0.9-2.3-1.9-4.4-1.7 1.4 3.1 3.9 5.6 7.3 7.8 2.9 1.9 5.3 4 7.1 6.4 1.8 2.3 3.6 4.7 5.6 6.9 2.4 2.7 5.1 5.3 7.7 8 1.1 1.1 2.6 2 4.3 2.4 0.6 0.1 1.2 0 1.6-0.2 0.2-0.1 0.1-0.7-0.2-1-1.1-1.3-2.4-2.5-3.9-3.5z"/>
				<path class="st0" d="m443.9 36.2c-3.4-0.8-7.1-0.8-11.2 0.1-3.9 1-7.1 0.8-9.4-1.1-0.4-0.3-0.8-0.5-1.2-0.7-1.6-0.5-3.5 0.2-5.2 1.3-1.6 1-3 2.3-2.6 4 0.8 0 1.6 0.1 2.5 0.1 1.9 0 4-0.4 5.6 0 3.5 0.9 7.4 0.7 11.4 0.6 3.2-0.1 6.3-1.3 9.5-2.3 0.1 0 0.3-0.1 0.4-0.2 0.3-0.3 0.8-0.7 0.8-1.1 0-0.2-0.3-0.6-0.6-0.7z"/>
				<path class="st0" d="m1195.3 191.9c-2.6 0.1-4.4-0.6-6.3-2.3-1.3-1.1-2.6-2.3-4.6-2.7-0.9 1.4-0.9 1.4-0.3 2.1 1 1.2 2.8 2.2 3 3.6-0.8 0.8-1.6 1.6-2.3 2.4 2.5 3.4 2.8 3.7 5.8 5.2 0.1 0 0.3-0.1 0.3-0.1 0.1-0.2 0.1-0.4 0.1-0.6-0.4-2.7-0.1-2.8 3.5-1.6 1.1 0.4 2.3 0.9 3.4 1 1.7 0.2 1.4-1.1 1.9-1.7 0.6-0.8 1.7-1.2 2.6-1.9-1.6-2.3-4.2-3.5-7.1-3.4z"/>
				<path class="st0" d="m1190.6 340.3c0-0.3-0.6-0.7-0.9-1-0.4 0.2-0.7 0.2-0.7 0.3-1.4 3.5-4.3 5.7-9.9 5.4-1.1-0.1-2 0.3-2.5 1-0.2 0.4-0.3 0.9-0.1 1.3 0.1 0.2 0.8 0.5 1.2 0.5 1.3-0.1 2.6-0.2 3.9-0.4 1 1.2 1.5 2.3 1.9 3.4 0.5 1.2 1.2 2.4 1.8 3.7 0.1 0.2 0.5 0.3 0.9 0.6 1.2-0.1 2.6-0.2 4.5-0.4-0.7-1.1-1.3-1.9-1.8-2.8-0.6-1 0.1-1.9 1.6-2.2 0.9-0.2 1.9-0.2 3.1-0.4 0.3-2 0.2-3.6-1.1-4.8-1.4-1.2-1.7-2.7-1.9-4.2z"/>
				<path class="st0" d="m429.4 640.6c-1.1-0.7-2.3-1.4-3.4-2.1-1.9-1-3.1-0.7-3 0.8 0.1 1.1 0.4 2.3 0.6 3.5 1.8 1.5 3.5 3.1 5.8 3.4 1.9 0.3 3.9 2.9 5.6 2.3 1.6-0.5 3.3-0.5 5.1-0.6 0.5-0.1 0.9-0.3 1.6-0.5-0.8-0.6-1.3-1.1-1.8-1.3-3.6-1.3-7.1-3.3-10.5-5.5z"/>
				<path class="st0" d="m319.1 291.2c-0.4-0.2-0.9-0.4-1.4-0.3-3.9 0.2-7.8-0.1-11.9 0.6 0 1.8 0.1 3.4 0.1 5 3.2 1.9 6.3 1.8 9.5 0.6 1.2-0.4 2.7-0.5 4-0.8 1.5-0.3 3.1-0.4 4-1.6-1.3-1.4-3.2-3-4.3-3.5z"/>
				<path class="st0" d="m1179.8 554.3c-1.5 0-2.7-0.3-4.4-0.5-1.2 1.8-2.7 3.2-1.4 4.3 1 0.9-0.1 2.4-1.7 3.8-0.6 0.5-1.3 1-2.1 1.7 0.8 1 2.2 0.5 3.4-0.1 4-1.8 7.3-4.3 10.2-7 1.1-1 1.6-2.1 0.8-2.9-1.6 0.3-3.3 0.7-4.8 0.7z"/>
				<path class="st0" d="m379 50.1c-0.3 0.4-1 0.8-1.5 1.1-1.6-0.3-2.3-2.4-5-0.1 0 0.2-0.1 0.3 0 0.4 1.4 1.1 3.5 1.6 4.4 3.2 0.2 0.3 1 0.4 1.5 0.2 2.5-0.8 4.9-2 7-3.8 0.5-0.4 0.8-1 1.2-1.5 0.9-1.4 1.8-2.8 2.9-4.5-2.3 0.8-4.1 1.4-5.9 2.1-1.7 0.6-3.3 1.3-4.6 2.9z"/>
				<path class="st0" d="m389.1 79.9c-1.2-0.5-2.6-0.3-4 0.5-2.5 1.4-5 2.8-7.2 4.6 0.6 1.8 1 2 2.5 1.5 0.9-0.3 1.9-0.6 2.8-1.1 2-0.9 3.7-0.9 5.3-0.2 0.8 0.4 1.8 0.5 2.5 0.7 1.5-0.8 2.1-1.7 2-2.6-0.1-0.7-0.3-1.4-0.9-1.8-0.8-0.7-2-1.1-3-1.6z"/>
				<path class="st0" d="m438.8 17.7c-3 1.2-5.9 2.7-8.9 4.1-1 0.5-1.4 2.1-0.4 2.3 1.7 0.3 3.4 0.9 5.2 0.4 3.2-0.9 6.6-2.3 9.6-5.3-1.3-1.7-2.9-2.5-5.5-1.5z"/>
				<path class="st0" d="m1155.4 271.9c-1.5 0.9-2 2.1-2.4 3.4-0.9 2.7-0.1 4.3 3.3 6.1 0.7 0.4 2 0.2 2.1-0.4 0.4-2 0.6-4 1-6.2-0.3-0.7-0.5-1.5-1-2.3-0.6-1-2-1.2-3-0.6z"/>
				<path class="st0" d="m1172.7 423.2c-0.1 0.3 0 0.8 0.3 0.9 0.3 0.2 1 0.2 1.3 0.1 1.3-0.6 2.7-1.3 3.8-2.1 1.5-1.2 3.1-2.1 5.2-2.5 1.4-0.3 2.8-0.9 4.8-1.6-1.2-0.6-1.7-1.2-2.5-1.3-4.8-0.4-11.3 2.8-12.9 6.5z"/>
				<path class="st0" d="m171.6 155.4c-0.7-0.2-2.1 0.2-4 0.5 0.5 2 0.5 3.5 1.3 4.6s2.9 1.3 3.8 2.5c0.1 0.2 0.9 0.1 1.4-0.1 0.4-0.2 1-0.7 1-0.9-0.1-1.6 0-3.3-0.5-4.7-0.5-0.9-1.8-1.5-3-1.9z"/>
				<path class="st0" d="m402.9 44.1c-3.6 0.6-7.1 2.3-10.4 4.4-0.8 0.5-1 1.2-0.7 1.8 0.4 1 1.7 1.2 2.8 0.2 2.1-2 4.3-2.3 6.6-2.8 1.5-0.3 3.1-0.4 4.8-2.3-0.5-0.4-0.9-0.9-1.4-1.1-0.5-0.3-1.2-0.3-1.7-0.2z"/>
				<path class="st0" d="m444.5 631.1c-0.1 0.9-0.3 1.9 1 2.9 1.9 0.5 3.8 1 5.9 1.6 0.4-0.5 0.8-1.1 1.2-1.6s0.7-1 1.1-1.6c-4.7-1.8-8.1-2.3-9.2-1.3z"/>
				<path class="st0" d="m1152.3 342.5c1 0.1 1.5 0.2 2 0.1 1.7-0.4 3.1-1.2 3.9-2.3 1.5-1.9 2.8-3.9 4.1-5.9 0.1-0.2-0.2-0.6-0.4-1.2-5.2 2.1-7.8 5.2-9.6 9.3z"/>
				<path class="st0" d="m1114.4 293c-3-0.4-5.9 1.2-6.1 3.2-0.2 1.4 1.4 3 2.9 3.1 0.3-0.1 0.7-0.1 0.9-0.2 1.8-1.4 2.8-3.2 3.4-5.1 0.1-0.3-0.6-1-1.1-1z"/>
				<path class="st0" d="m1179.8 235.7c-1.1-0.7-2.6-0.8-3.7 0 0 1.6 2 2.5 3.3 3.7s2.4 2.5 4.1 4.2c0.5-0.6 1.1-1 1.1-1.4-0.1-2.5-2.1-4.6-4.8-6.5z"/>
				<path class="st0" d="m672.7 187.2c-0.3-1.1-1.9-1.6-3.1-1-1 0.5-1.8 1.3-1.6 2.3 0.4 1.7 0.8 3.4 1.3 5.1 0.1 0.4 0.9 0.9 1.4 0.9s1.2-0.6 1.4-1c0.4-1.3 0.6-2.6 0.7-3.1 0-1.4 0.1-2 0-2.5 0-0.1 0-0.4-0.1-0.7z"/>
				<path class="st0" d="m1203 370c-3.3 0.1-5.2 1.3-4.7 2.8 0.7 1.9 0.2 3.7-0.6 5.6-0.1 0.2 0 0.5 0.1 0.7 0.2 0.3 0.5 0.7 0.8 0.7 0.6 0 1.4-0.2 1.7-0.5 1.5-1.6 1.5-3.2 0.5-4.8-0.6-1-0.4-1.8 0.4-2.7 0.6-0.4 1-0.9 1.8-1.8z"/>
				<path class="st0" d="m686 201.4c2.5 2 5.4 2.8 8.6 3.7 0.5-1.5 1.5-2.6 0.2-4.1-2.9-0.3-5.7-1.3-8.8 0.4z"/>
				<path class="st0" d="m363.9 66.2c0.8 2.2 1.7 2.4 4 1 1.3-0.8 2.5-1.7 3.8-2.6 0.5-0.3 0.8-0.8 1.4-1.4-3.2-0.8-6 0.4-9.2 3z"/>
				<path class="st0" d="m1165.4 417c-1-0.2-2.2-0.3-3.3-0.2s-2.1 1.2-2.1 2c0 0.7 1.2 1.3 2.4 1.2 1.8-0.1 3.6-0.3 5.2-1.2 0.2-1.3-1.1-1.6-2.2-1.8z"/>
				<path class="st0" d="m1187.7 328.7c-0.9-0.8-2-1.3-4-0.7 0.1 1.7 0.8 3.1 2.3 4.3 0.8 0.6 2 0.8 2.7 0.4 0.9-0.5 1.2-1.2 0.8-1.9s-1.1-1.4-1.8-2.1z"/>
				<path class="st0" d="m1143.3 419.4c1.3 0.8 2.2 1.3 3.1 1.9 1.9-0.7 3.7-1 5.4-2.4-0.6-0.4-1-1-1.6-1.1-2.1-0.3-4.2 0.2-6.9 1.6z"/>
				<path class="st0" d="m282.3 296.2c-0.6 0.1-1.3 0.6-1.5 0.9-0.2 0.4 0.1 1 0.5 1.3 0.7 0.5 1.5 1.1 2.4 1.2 1.5 0.1 2.9-0.3 4-1.6-1.1-2-3.1-2.3-5.4-1.8z"/>
				<path class="st0" d="m181.6 130.9c-0.4-0.1-1.3 0.3-1.8 0.6-1.6 1-2.7 3.1-1.9 4 0.3 0.3 1.1 0.5 1.8 0.4 0.3 0 1-0.7 1.4-1.2s0.5-1 0.7-1.5h0.1c0.2-0.5 0.6-1 0.6-1.5-0.3-0.3-0.5-0.8-0.9-0.8z"/>
				<path class="st0" d="m1171.2 332.3c-0.5 0.6-0.2 1.3 0.5 1.6 0.6 0.3 1.7 0.4 2.3 0.1 1.6-0.8 2.4-2 3-3.5-0.5-0.2-1.1-0.7-1.5-0.6-2 0.3-3.4 1.2-4.3 2.4z"/>
				<path class="st0" d="m822.7 58c-1.1-0.6-2.3-1-3.5-1.3-1.6-0.5-2.8-0.1-3 0.7-0.3 0.9 1.1 2 2.9 2.1 1.4 0 2.8-0.1 4.3-0.2-0.3-0.5-0.4-1.1-0.7-1.3z"/>
				<path class="st0" d="m823.4 59.3l0.1-0.1h-0.2l0.1 0.1z"/>
				<path class="st0" d="m732.3 214c4.6 2.2 5.4 2.2 8.3 0.9-2.3-1.8-4.8-1.8-8.3-0.9z"/>
				<path class="st0" d="m352.5 334c-2.6-0.7-1.8 2-3.1 2.8-0.2 0.1 0 0.5 0 1 1 0.1 2.1 0.2 4.4 0.3-1.7-1.8 0.7-3.6-1.3-4.1z"/>
				<path class="st0" d="m297.9 295.9c-0.2 0-0.6 0.3-0.7 0.5s0 0.6 0.1 0.7c1.1 0.4 2.3 1 3.5 1.1 1.3 0.1 2.5-0.3 3.4-1.6-2.1-0.6-4.2-0.9-6.3-0.7z"/>
				<path class="st0" d="m329.4 297.3c-0.1 0.3 0.1 0.8 0.4 1 1.6 1.4 3.8 0.6 5-1.9-1.5 0-3 0-4.5 0.1-0.3 0.1-0.8 0.5-0.9 0.8z"/>
				<path class="st0" d="m1177.2 336.6l-2.6 2.6c0.8 0.5 1.4 0.9 2.4 1.6 1.2-1.6 2.7-2.8 0.2-4.2z"/>
				<path class="st0" d="m1190.3 234.8c-0.6-0.2-1.4-0.2-1.7 0-0.6 0.3-1.1 0.8-1.2 1.3s0.2 1.2 0.7 1.6c0.7 0.6 1.6 0.3 2-0.2 0.5-0.5 0.8-1.1 1.1-1.6-0.4-0.6-0.6-1.1-0.9-1.1z"/>
				<path class="st0" d="m670 179.1c-0.4 1.1 0 1.6 1.9 2.6 0.8-1.6 0.8-1.6 0.4-3.6-1.7 0.3-2.2 0.5-2.3 1z"/>
				<path class="st0" d="m646.6 191.3c-0.9-0.3-1.5 0.4-1.7 1-0.2 0.4 0 0.9 0.1 1.4 0 0 0.3 0.1 0.7 0.1 0.4-0.4 1.1-0.7 1.4-1.3 0.2-0.3-0.2-1.1-0.5-1.2z"/>
				<path class="st0" d="m767.7 215.9c0 0.4 0.9 1.1 1.2 1.1 0.8-0.1 1.6-0.6 3-1.2-1.3-0.4-1.8-0.7-2.4-0.8-0.9-0.1-1.8 0.1-1.8 0.9z"/>
				<path class="st0" d="m314.1 324.3c0 0.2 0.5 0.5 0.9 0.9 0.3-0.4 0.8-0.8 0.7-1-0.1-0.3-0.6-0.4-0.9-0.7-0.3 0.3-0.7 0.6-0.7 0.8z"/>
				<path class="st0" d="m320.3 324.8c0 0.2 0.3 0.4 0.5 0.6l0.6-0.6c-0.2-0.2-0.4-0.4-0.5-0.6-0.3 0.3-0.6 0.4-0.6 0.6z"/>
			<path class="st1" d="m269.5 101l-1.1-0.2c1.3-7 6.1-13.9 13-18.5 4.8-3.2 10.1-5.1 15.4-5.5l0.1 1.1c-5.1 0.4-10.2 2.2-14.9 5.3-6.6 4.5-11.3 11.1-12.5 17.8z"/>
			<path class="st1" d="m222.2 98.5c-0.1-0.2-5.7-19.3 22-31.3 21.9-9.4 54.2 8.9 54.5 9.1l-0.6 1c-0.3-0.2-32.2-18.3-53.5-9.1-26.8 11.6-21.4 29.7-21.4 29.9l-1 0.4z"/>
			<path class="st1" d="m168.8 260.6c-0.1-0.1-12.2-9.6-6.9-23 7.4-18.3 27.4-15.5 27.6-15.5l-0.2 1.1c-0.2 0-19.4-2.7-26.4 14.8-5 12.6 6.4 21.6 6.5 21.7l-0.6 0.9z"/>
			<path class="st1" d="m398.1 459.7l-1.1-0.2c0-0.3 3.6-26.7-12.2-43.7-21.9-23.5-42.1-18.2-42.3-18.2l-0.3-1.1c0.2-0.1 21-5.6 43.4 18.5 16.2 17.5 12.5 44.5 12.5 44.7z"/>
			<path class="st1" d="m386.1 552.4l-0.5-1c0.2-0.1 16.9-9.5 19.8-30.9 2.9-21.5-9.7-35-9.8-35.1l0.8-0.8c0.1 0.1 13.1 14 10.1 36-3 22.1-20.2 31.7-20.4 31.8z"/>
			<path class="st1" d="m360 508.3h-2.1l0.1-1.1c0.2 0 16.6 0.9 28.8-6.1 12.1-6.9 12.2-23.2 12.2-23.4h1.1c0 0.2-0.2 17.1-12.8 24.4-9.9 5.6-22.5 6.2-27.3 6.2z"/>
			<path class="st1" d="m317.8 349.9l-1.1-0.2c0-0.2 3.5-24.2-19.2-44.3-15.6-13.8-38-11.9-38.3-11.9l-0.1-1.1c0.2 0 23.2-2 39.1 12.1 23.2 20.6 19.7 45.2 19.6 45.4z"/>
			<path class="st1" d="m619.1 189.7c-0.1-0.6-2.5-14.7 5.3-24.6 8.6-10.9 22.7-10.5 22.8-10.5v1.1c-0.1 0-13.7-0.4-21.9 10-7.5 9.5-5.1 23.6-5 23.7l-1.2 0.3z"/>
			<path class="st1" d="m718.3 146.8c-0.1-0.2-7.6-15.7-27.4-16.2-19.9-0.5-30.1 12.4-30.2 12.6l-0.9-0.7c0.1-0.1 10.7-13.5 31.2-13 20.5 0.6 28.3 16.7 28.4 16.8l-1.1 0.5z"/>
			<path class="st1" d="m725.7 135.6l-0.4-1.1c0.1 0 12.4-4.7 17.1-19.1 4.8-14.5 0-29.4 0-29.5l1.1-0.3c0 0.2 4.9 15.4 0 30.2-4.9 14.9-17.6 19.7-17.8 19.8z"/>
			<path class="st1" d="m732.3 266.3c-0.2-0.2-16.4-23-49-28s-52 5.7-52.2 5.8l-0.6-1c0.2-0.1 19.9-11 52.9-6 33.1 5 49.6 28.2 49.8 28.5l-0.9 0.7z"/>
			<path class="st1" d="m538.5 500.6c-39.6 0-84-11.2-132.7-33.7l0.5-1c80.1 36.9 148.5 43.4 203.1 19.3 67.6-29.8 89.8-97.4 90-98.1 0.1-0.4 10.7-43.6-13.5-89.7-24.1-46-60-46.6-60.3-46.6v-1.1c0.4 0 36.8 0.6 61.3 47.2 24.4 46.5 13.7 90.1 13.5 90.5-0.2 0.7-22.5 68.7-90.6 98.8-21.7 9.6-45.5 14.4-71.3 14.4z"/>
			<path class="st1" d="m593.4 329.5l0.8-1.6c0.2-0.3 11.4-20.9 33.7-46.1 1.9-13.8-2.9-25.5-2.9-25.6l1-0.4c0.1 0.1 4.6 11.2 3.2 24.6 10-11.1 22.2-23.1 36.5-34.5 27.9-22.2 58.3-38 90.4-47 40.2-11.3 83.2-11.8 127.8-1.7l-0.2 1.1c-100.6-22.8-173.7 13.8-217.3 48.5-14.8 11.8-27.3 24.1-37.4 35.6-0.5 3.5-1.4 7.1-2.9 10.8-10.5 24.9-30.9 35.5-31.1 35.6l-1.6 0.7zm34.2-45.6c-17.8 20.3-28.3 37.4-31.4 42.8 5.1-3.1 20.3-13.8 28.8-34 1.3-2.9 2.1-5.9 2.6-8.8z"/>
			<path class="st1" d="m943.8 227.3l-0.3-1.1c0.1 0 12.8-3.2 19.7-11.5 8-9.7 4.1-19.7 4.1-19.8l1-0.4c0 0.1 4.2 10.7-4.2 20.9-7.2 8.7-19.8 11.8-20.3 11.9z"/>
			<path class="st1" d="m925 219.6c-0.1-1.1-3.7-26.9-39.8-24.3l-1.1 0.1 0.6-1c0.1-0.2 13.4-19.6 44.3-31.2 28.4-10.7 78-16.9 153 14.6l-0.4 1c-74.5-31.3-123.8-25.2-152.1-14.6-26.6 10-40 25.8-43.1 29.8 36.1-2 39.7 25.1 39.7 25.4l-1.1 0.2z"/>
			<path class="st1" d="m946.5 239.7l-0.3-1.1c0.4-0.1 36.7-11.6 42.8-38.5 4.2-18.7-6.9-40.4-33-64.4l0.8-0.8c26.5 24.3 37.7 46.3 33.4 65.5-6.4 27.5-43.3 39.1-43.7 39.3z"/>
			<path class="st1" d="m731.1 489.3l-0.1-1.1c0.2 0 23.9-1.9 26.2-16.6 2.3-14.8-9.9-23.4-10.1-23.5l0.6-0.9c0.1 0.1 13 9.1 10.5 24.6-2.3 15.5-26.1 17.4-27.1 17.5z"/>
			<path class="st1" d="m1108.1 253.3c-0.2-0.2-19.5-20.1-52.2-5.2l-0.5-1c33.4-15.2 53.3 5.2 53.5 5.4l-0.8 0.8z"/>
			<path class="st1" d="m1113.9 248.8h-1.1c0-23-22.1-27.2-22.4-27.2l0.2-1.1c0.2 0 23.3 4.3 23.3 28.3z"/>
			<path class="st1" d="m1133.3 179.3c-8.2-8.9-16.7-13.3-25.3-12.9-13.1 0.6-22.1 12.1-22.2 12.2l-0.9-0.7c0.1-0.1 9.4-12.1 23-12.7 9-0.4 17.8 4 26.2 13.2l-0.8 0.9z"/>
			<path class="st1" d="m1097.4 319.6c0-0.2-3.2-16.6-17.1-31.6-12.8-13.9-37.7-29.4-83.4-24.5l-0.1-1.1c46.2-4.9 71.4 10.8 84.4 24.9 14.1 15.3 17.3 31.9 17.3 32.1l-1.1 0.2z"/>
			<path class="st1" d="m1085.5 357.8c0-0.2-1.7-20.7-13.7-42.5-11-20.1-33.1-45.3-76.3-51.7l0.2-1.1c43.6 6.5 66 32 77.1 52.3 12 22 13.8 42.7 13.8 42.9l-1.1 0.1z"/>
			<path class="st1" d="m993.9 262.9c-0.2-0.2-18.3-24.8-50.2-21.3l-0.1-1.1c32.5-3.6 51 21.5 51.2 21.7l-0.9 0.7z"/>
			<path class="st1" d="m733.8 268.1l-0.7-0.9c0.2-0.2 18.8-15.4 47.3-26.9 26.3-10.6 66.7-20.2 109.5-5.4 21.2 7.4 28.9-0.8 31.2-4.6 0.1-0.1 0.1-0.2 0.1-0.2l0.9 0.7-0.1 0.1c-2.4 4.1-10.5 12.7-32.5 5.1-42.5-14.7-82.6-5.2-108.7 5.3-28.3 11.5-46.8 26.6-47 26.8z"/>
			<path class="st1" d="m753.5 433.7l-1.1-0.2c0.1-0.6 10.2-59.2 62-95.7 39.3-27.7 91.7-35.8 155.9-24.2-0.2-3.9-1.6-23.5-11.4-43.4-10.8-21.7-19.6-20.9-19.7-20.9l-0.2-1.1c0.4-0.1 9.6-1.1 20.8 21.5 11.1 22.4 11.5 44.3 11.6 44.6v0.7l-0.7-0.1c-64.2-11.8-116.5-3.7-155.7 23.9-51.4 36.2-61.4 94.3-61.5 94.9z"/>
			<path class="st1" d="m1058.6 250.8l-0.8-1c-24-31-57.2-33.9-80.9-30.8-25.7 3.3-46 14.2-46.2 14.3l-0.5-1c0.2-0.1 20.7-11 46.6-14.4 23.7-3.1 56.9-0.3 81.1 30.2 0.9-8.3 4.4-53.9-22.5-84.1-17.4-19.6-44-29-79-28v-1.1c35.4-1 62.2 8.6 79.9 28.4 29.9 33.6 22.7 85.8 22.6 86.3l-0.3 1.2z"/>
			<path class="st1" d="m594.2 332.1c-0.1-0.2-12.5-21.1-35.9-44.2-21.6-21.3-57.3-48.9-104.7-59.2-60.8-13.3-126.1 4.3-194.1 52.1l-0.6-0.9c68.3-48 133.9-65.6 195-52.3 47.7 10.4 83.5 38.1 105.2 59.5 23.5 23.2 35.9 44.2 36 44.4l-0.9 0.6z"/>
			<path class="st1" d="m256 276.2l-1-0.5c0.1-0.2 12.2-23.6-3.8-60.2-10.1-22.9-27.4-32.5-41.5-36.4-1.1 2.3-2.1 4.6-3 6.7-7.3 18.5-7.1 35.6-7.1 35.8h-1.1c0-0.2-0.2-17.5 7.1-36.2 0.8-2.2 1.8-4.4 2.9-6.7-12-3.1-21.5-2.2-21.7-2.2h-0.5l-0.1-0.4c-0.1-0.2-5.8-19.5 18.9-37.8s54 0.9 54.3 1.1l1.1 0.7-1.3 0.3c-26.7 5.7-41.3 22.2-49.1 37.6 14.3 4 31.8 13.8 42 37 16.5 37.2 4.1 61 3.9 61.2zm-65.4-100.8c4 0 10.7 0.4 18.5 2.4 7.8-15.4 22.2-32 48.6-38.1-5.6-3.3-30.6-16.2-51.9-0.4-22 16.3-19.2 33.3-18.6 36.1h3.4z"/>
			<path class="st1" d="m639.4 128.2c-0.2-0.5-22.9-46.5-75.3-79.6-48.4-30.6-132.7-56.1-259.8-4l-0.4-1c56.3-23.1 109-33 156.7-29.5 38.2 2.8 73.2 14.1 104.1 33.7 52.7 33.3 75.5 79.6 75.7 80.1l-1 0.3z"/>
			<path class="st1" d="m760.1 124.6c-11.1-22.2-26.2-29.2-37-31.1-11.7-2.1-20.9 1.1-21 1.1l-0.4-1.1c0.4-0.1 37.7-12.8 59.4 30.6l-1 0.5z"/>
			<path class="st1" d="m749.4 422.1c-0.1-0.3-6.3-26.5-28.3-50.7-20.3-22.3-58.5-47.5-125.4-40.5l-0.1-1.1c29.7-3.1 56.4-0.2 79.2 8.6 18.3 7.1 34.1 17.9 47.2 32.3 22.2 24.4 28.5 50.9 28.6 51.2l-1.2 0.2z"/>
			<path class="st1" d="m1142.5 235.9l-1.1-0.1c0-0.2 2.2-16.4 15.4-25 9.6-6.3 22.5-7.1 38.2-2.4l-0.3 1.1c-15.4-4.6-28-3.8-37.3 2.3-12.8 8.3-14.9 24-14.9 24.1z"/>
			<path class="st1" d="m1201.3 459.7c0-0.4-0.5-38.1-24.2-60.1-12.7-11.8-29.9-17.1-50.9-15.6l-0.1-1.1c21.4-1.5 38.8 3.9 51.8 15.9 24.1 22.3 24.6 60.5 24.6 60.9h-1.2z"/>
			<path class="st1" d="m1253.2 479.5l-1.1-0.3c16.1-70.3-8.3-76.9-8.5-76.9l0.3-1.1c0.3 0.1 6.7 1.7 11 12.2 5.6 13.8 5 36.6-1.7 66.1z"/>
			<path class="st1" d="m1193.4 521.2l-0.6-1c13-7.7 19.9-16.3 20.6-25.6 1.1-13.3-11.1-23.6-11.3-23.7l0.7-0.9c0.1 0.1 12.8 10.7 11.7 24.6-0.7 9.8-7.8 18.7-21.1 26.6z"/>
			<path class="st1" d="m1130.4 494.6l-1.1-0.2c0-0.3 4.8-27.5 25.4-39.6 12.6-7.4 28.5-7.7 47.1-0.9l-0.4 1.1c-18.3-6.6-33.8-6.4-46.1 0.8-20.3 11.8-24.9 38.5-24.9 38.8z"/>
			<path class="st1" d="m883.4 196.4c-20.5-40.3 17.1-91.3 17.5-91.8l0.9 0.7c-0.4 0.5-37.6 51-17.4 90.7l-1 0.4z"/>
			<path class="st1" d="m808.7 145.7l-0.4-0.9c-0.1-0.2-6.5-15.7-20.4-18.6-15.9-3.3-22.3 2.8-22.4 2.8l-0.8-0.8c0.3-0.3 6.9-6.5 23.4-3.1 12.6 2.6 19.3 15 20.9 18.4 25.1-30.2 57.6-6.4 57.9-6.1l-0.7 0.9c-0.3-0.2-32.5-23.8-56.9 6.6l-0.6 0.8z"/>
			<path class="st1" d="m1195.7 205c-4.9-19.6-12.9-31.2-23.8-34.4-16.4-4.9-34.1 11.2-34.3 11.3l-0.8-0.8c0.2-0.2 18.3-16.7 35.4-11.6 11.3 3.4 19.5 15.2 24.5 35.3l-1 0.2z"/>
							<path class="st1" d="m190 252.8l2.7 0.5c0.3-2 0.7-3.3 0.7-3.3l-2.7-0.7s-0.4 1.3-0.7 3.5z"/>
							<path class="st1" d="m203.4 300.2l-2 1.9c1.3 1.4 2.8 2.7 4.3 3.9 0.5 0.4 0.9 0.7 1.4 1.1l1.6-2.2c-0.4-0.3-0.9-0.6-1.3-1-1.4-1.2-2.7-2.4-4-3.7z"/>
							<path class="st1" d="m193.3 289.5c1 2.3 2.2 4.6 3.5 6.7l2.3-1.5c-1.3-1.9-2.4-4-3.3-6.2l-2.5 1z"/>
							<path class="st1" d="m189.1 260.2c-0.1 1.9-0.2 3.9-0.2 5.8v1.6l2.8-0.1v-1.6c0-1.8 0.1-3.7 0.2-5.6l-2.8-0.1z"/>
							<path class="st1" d="m189.4 275c0.3 2.5 0.8 5 1.4 7.3l2.7-0.7c-0.6-2.2-1-4.6-1.3-7l-2.8 0.4z"/>
							<path class="st1" d="m242.2 308l1 2.6c2.3-0.9 4.5-1.9 6.8-3.1l-1.3-2.4c-2.2 1.1-4.4 2.1-6.5 2.9z"/>
							<path class="st1" d="m213.6 310.9c2.3 1 4.8 1.8 7.3 2.3l0.5-2.7c-2.3-0.4-4.5-1.1-6.7-2.1l-1.1 2.5z"/>
							<path class="st1" d="m228.4 310.9l0.1 2.8c2.4-0.1 5-0.4 7.5-0.9l-0.6-2.7c-2.4 0.5-4.7 0.8-7 0.8z"/>
							<path class="st1" d="m254.8 301.3l1.6 2.3c1.8-1.3 2.8-2.1 2.9-2.1l-1.8-2.1c-0.1-0.1-1 0.7-2.7 1.9z"/>
							<path class="st1" d="m301.1 77.4s0.2 1.2 0.6 3.3l2.7-0.4c-0.3-2.2-0.6-3.5-0.6-3.5l-2.7 0.6z"/>
							<path class="st1" d="m227.5 205l0.6 2.7c2.3-0.5 4.6-1 6.8-1.6l-0.7-2.7c-2.2 0.6-4.5 1.1-6.7 1.6z"/>
							<path class="st1" d="m253.4 196.6l1.2 2.5c2.1-1 4.2-2 6.2-3.1l-1.3-2.4c-2 1-4.1 2-6.1 3z"/>
							<path class="st1" d="m240.7 201.5l0.8 2.6c2.2-0.7 4.4-1.5 6.6-2.3l-1-2.6c-2.1 0.9-4.2 1.6-6.4 2.3z"/>
							<path class="st1" d="m302.6 87.5c0.3 2.2 0.5 4.5 0.6 6.8l2.8-0.2c-0.2-2.3-0.4-4.6-0.7-6.9l-2.7 0.3z"/>
							<path class="st1" d="m214 207l0.3 2.7c2.3-0.2 4.6-0.5 6.9-0.9l-0.4-2.7c-2.3 0.4-4.5 0.7-6.8 0.9z"/>
							<path class="st1" d="m265.3 190l1.5 2.3c2-1.3 3.9-2.6 5.7-4l-1.7-2.2c-1.7 1.4-3.6 2.7-5.5 3.9z"/>
							<path class="st1" d="m301.4 135.2l2.7 0.5c0.4-2.2 0.8-4.5 1.1-6.9l-2.7-0.4c-0.3 2.3-0.7 4.6-1.1 6.8z"/>
							<path class="st1" d="m303.2 121.7l2.8 0.2c0.2-2.3 0.3-4.6 0.4-6.9l-2.8-0.1c-0.1 2.2-0.2 4.5-0.4 6.8z"/>
							<path class="st1" d="m303.6 101.2c0.1 2.3 0.1 4.6 0.1 6.8h2.8c0-2.3 0-4.6-0.1-6.9l-2.8 0.1z"/>
							<path class="st1" d="m298 148.3l2.6 0.9c0.7-2.2 1.4-4.4 1.9-6.7l-2.7-0.7c-0.4 2.2-1.1 4.4-1.8 6.5z"/>
							<path class="st1" d="m292.9 160.9l2.5 1.3c1-2 2-4.2 2.9-6.4l-2.6-1.1c-0.9 2.1-1.8 4.2-2.8 6.2z"/>
							<path class="st1" d="m276.1 181.9l1.8 2.1c1.8-1.5 3.5-3.2 5.1-4.8l-2-1.9c-1.5 1.5-3.2 3.1-4.9 4.6z"/>
							<path class="st1" d="m285.5 172.2l2.2 1.7c1.4-1.8 2.8-3.7 4.1-5.7l-2.3-1.5c-1.3 1.9-2.6 3.8-4 5.5z"/>
							<path class="st1" d="m203.8 207.5l-0.1 2.8h0.8c0.6 0 1.5 0 2.7-0.1l-0.1-2.8c-2 0.2-3.2 0.1-3.3 0.1z"/>
						<path class="st1" d="m361.6 324.6l2.8 0.2s0.1-1.2 0.3-3.4l-2.7-0.3c-0.3 2.3-0.4 3.5-0.4 3.5z"/>
						<path class="st1" d="m396.6 239.5l2.1 1.8c1.5-1.7 3-3.4 4.5-5l-2-1.9c-1.6 1.6-3.1 3.3-4.6 5.1z"/>
						<path class="st1" d="m388.2 250.5l2.3 1.6c1.3-1.9 2.6-3.7 4-5.5l-2.2-1.7c-1.5 1.8-2.8 3.7-4.1 5.6z"/>
						<path class="st1" d="m406.1 229.5l1.9 2c1.6-1.5 3.3-3.1 5.1-4.5l-1.8-2.1c-1.8 1.4-3.5 3-5.2 4.6z"/>
						<path class="st1" d="m428.3 212.9l1.4 2.4c1.9-1.1 3.9-2.2 5.9-3.3l-1.3-2.5c-2 1.1-4.1 2.3-6 3.4z"/>
						<path class="st1" d="m454.1 201.4l-0.7 0.2 0.9 2.6 0.6-0.2c2-0.6 3.9-1.2 5.9-1.8l-0.8-2.6c-1.9 0.6-3.9 1.2-5.9 1.8z"/>
						<path class="st1" d="m416.7 220.6l1.7 2.2c1.8-1.3 3.7-2.7 5.5-3.9l-1.5-2.3c-1.9 1.2-3.8 2.6-5.7 4z"/>
						<path class="st1" d="m380.9 262.3l2.4 1.3c1.1-2 2.2-4 3.4-5.9l-2.3-1.4c-1.2 1.9-2.4 3.9-3.5 6z"/>
						<path class="st1" d="m365.8 300.8l2.7 0.7 1.8-6.6-2.6-0.8c-0.7 2.2-1.4 4.4-1.9 6.7z"/>
						<path class="st1" d="m362.9 314.3l2.7 0.5c0.4-2.2 0.8-4.4 1.3-6.7l-2.7-0.6c-0.5 2.3-0.9 4.6-1.3 6.8z"/>
						<path class="st1" d="m369.7 287.5l2.6 0.9c0.7-2.1 1.5-4.3 2.3-6.4l-2.6-1c-0.7 2.2-1.5 4.3-2.3 6.5z"/>
						<path class="st1" d="m374.8 274.6l2.5 1.1c0.9-2.1 1.9-4.1 2.9-6.2l-2.5-1.2c-1 2.1-2 4.2-2.9 6.3z"/>
						<path class="st1" d="m440.6 206.6l1.1 2.5c2-0.9 4.1-1.8 6.3-2.6l-1-2.6c-2.2 0.9-4.4 1.8-6.4 2.7z"/>
						<path class="st1" d="m574.5 202.2c2.1 0.8 4.3 1.6 6.3 2.5l1.1-2.5c-2.1-0.9-4.3-1.7-6.4-2.5l-1 2.5z"/>
						<path class="st1" d="m561.5 198.2c2.2 0.6 4.4 1.2 6.5 1.9l0.8-2.6c-2.2-0.7-4.4-1.3-6.7-1.9l-0.6 2.6z"/>
						<path class="st1" d="m548.2 195.4c2.2 0.4 4.5 0.8 6.7 1.3l0.6-2.7c-2.2-0.5-4.5-0.9-6.8-1.3l-0.5 2.7z"/>
						<path class="st1" d="m587 207.4c2 1 4.1 2 6 3.1l1.3-2.4c-2-1.1-4.1-2.1-6.2-3.1l-1.1 2.4z"/>
						<path class="st1" d="m598.9 213.9c2 1.2 3.9 2.4 5.7 3.7l1.6-2.3c-1.8-1.3-3.8-2.6-5.8-3.8l-1.5 2.4z"/>
						<path class="st1" d="m521.2 193.1c2.3 0 4.5 0.1 6.8 0.2l0.1-2.8c-2.3-0.1-4.6-0.2-6.9-0.2v2.8z"/>
						<path class="st1" d="m480.1 194.6l0.6 2.7c2.2-0.5 4.5-0.9 6.7-1.3l-0.5-2.7c-2.3 0.4-4.5 0.8-6.8 1.3z"/>
						<path class="st1" d="m493.7 192.2l0.4 2.7c2.2-0.3 4.5-0.6 6.8-0.8l-0.3-2.7c-2.3 0.2-4.6 0.5-6.9 0.8z"/>
						<path class="st1" d="m534.8 193.7c2.3 0.2 4.5 0.4 6.8 0.7l0.3-2.7c-2.3-0.3-4.6-0.5-6.9-0.7l-0.2 2.7z"/>
						<path class="st1" d="m507.4 190.8l0.2 2.8c2.3-0.2 4.5-0.3 6.8-0.3l-0.1-2.8c-2.3 0-4.6 0.1-6.9 0.3z"/>
						<path class="st1" d="m466.7 197.7l0.7 2.7c2.2-0.6 4.4-1.1 6.6-1.7l-0.6-2.7c-2.2 0.6-4.5 1.1-6.7 1.7z"/>
						<path class="st1" d="m610 221.7c1.6 1.4 2.5 2.2 2.5 2.2l1.9-2s-0.9-0.9-2.7-2.3l-1.7 2.1z"/>
							<path class="st1" d="m760.2 139.8s0.6 1.1 1.6 3l2.5-1.2c-1-2-1.6-3.1-1.6-3.1l-2.5 1.3z"/>
							<path class="st1" d="m779.8 187.4c0.7 2.1 1.4 4.3 2.1 6.6l2.6-0.8c-0.7-2.3-1.4-4.5-2.1-6.6l-2.6 0.8z"/>
							<path class="st1" d="m764.7 149c0.9 1.8 1.8 3.9 2.8 6.3l2.5-1.1c-1-2.4-2-4.5-2.9-6.3l-2.4 1.1z"/>
							<path class="st1" d="m770.3 161.6c0.8 2 1.7 4.1 2.6 6.4l2.6-1c-0.9-2.3-1.8-4.4-2.6-6.4l-2.6 1z"/>
							<path class="st1" d="m787.4 213.9c0.5 2.2 1.1 4.4 1.6 6.7l2.7-0.6c-0.5-2.3-1-4.5-1.6-6.8l-2.7 0.7z"/>
							<path class="st1" d="m775.3 174.4c0.8 2.1 1.6 4.2 2.3 6.5l2.6-0.9c-0.8-2.3-1.6-4.4-2.4-6.5l-2.5 0.9z"/>
							<path class="st1" d="m783.9 200.6l1.8 6.6 2.7-0.7c-0.6-2.3-1.2-4.5-1.9-6.7l-2.6 0.8z"/>
							<path class="st1" d="m794.6 254.5c0.2 2.3 0.5 4.5 0.7 6.8l2.8-0.2c-0.2-2.3-0.4-4.6-0.7-6.9l-2.8 0.3z"/>
							<path class="st1" d="m795.8 268.2l0.3 6.9 2.8-0.1-0.3-6.9-2.8 0.1z"/>
							<path class="st1" d="m796.2 282v1c0 1.9 0 3.9-0.1 5.8l2.8 0.1c0-2 0.1-3.9 0.1-5.9v-1.1l-2.8 0.1z"/>
							<path class="st1" d="m792.8 240.9c0.4 2.2 0.7 4.5 1 6.8l2.7-0.4c-0.3-2.3-0.6-4.6-1-6.9l-2.7 0.5z"/>
							<path class="st1" d="m790.4 227.3c0.4 2.2 0.9 4.5 1.3 6.8l2.7-0.5c-0.4-2.3-0.8-4.6-1.3-6.8l-2.7 0.5z"/>
							<path class="st1" d="m788.3 343.1l2.7 0.6c0.5-2.2 1-4.4 1.5-6.7l-2.7-0.6c-0.5 2.3-1 4.6-1.5 6.7z"/>
							<path class="st1" d="m791.5 328.9l-0.2 0.8 2.7 0.6 0.2-0.8 1.2-6-2.7-0.5c-0.4 1.9-0.8 3.9-1.2 5.9z"/>
							<path class="st1" d="m793.8 316.2l2.7 0.4 0.9-6.9-2.7-0.3c-0.2 2.2-0.5 4.5-0.9 6.8z"/>
							<path class="st1" d="m763.5 421.6l2.4 1.3c1-1.9 2.1-4 3.1-6.3l-2.5-1.1c-1.1 2.3-2.1 4.3-3 6.1z"/>
							<path class="st1" d="m795.4 302.5l2.7 0.2c0.2-2.3 0.4-4.6 0.5-6.9l-2.8-0.1c0 2.3-0.2 4.6-0.4 6.8z"/>
							<path class="st1" d="m785.1 356.6l2.7 0.7c0.5-2.2 1.1-4.4 1.6-6.7l-2.7-0.6c-0.5 2.2-1 4.4-1.6 6.6z"/>
							<path class="st1" d="m773.8 396.3l2.6 0.9c0.7-2.1 1.4-4.3 2.1-6.6l-2.6-0.8c-0.7 2.3-1.4 4.4-2.1 6.5z"/>
							<path class="st1" d="m769.1 409.2l2.6 1c0.8-2 1.6-4.2 2.5-6.5l-2.6-0.9c-0.9 2.3-1.7 4.4-2.5 6.4z"/>
							<path class="st1" d="m781.7 369.9l2.7 0.7c0.6-2.2 1.2-4.4 1.8-6.7l-2.7-0.7c-0.6 2.3-1.2 4.6-1.8 6.7z"/>
							<path class="st1" d="m778 383.2l2.6 0.8c0.6-2.1 1.3-4.3 1.9-6.7l-2.7-0.7c-0.6 2.3-1.2 4.5-1.8 6.6z"/>
							<path class="st1" d="m757.9 429.3l1.2 2.5c0.3-0.1 1.3-0.7 2.9-2.8l-2.2-1.7c-1.2 1.6-1.9 2-1.9 2z"/>
							<path class="st1" d="m383.9 341.6s1.2 0.2 3.2 0.7l0.7-2.7c-2.2-0.6-3.5-0.8-3.5-0.8l-0.4 2.8z"/>
							<path class="st1" d="m405.9 351.5c1.9 1.4 3.7 2.9 5.4 4.5l1.9-2c-1.8-1.7-3.7-3.3-5.6-4.8l-1.7 2.3z"/>
							<path class="st1" d="m416 361.2c1.5 1.8 2.8 3.7 4.1 5.7l2.3-1.5c-1.3-2.1-2.7-4.1-4.3-6l-2.1 1.8z"/>
							<path class="st1" d="m423.4 373.1c1 2.1 1.9 4.3 2.6 6.5l2.6-0.9c-0.8-2.3-1.7-4.6-2.8-6.8l-2.4 1.2z"/>
							<path class="st1" d="m428 386.4c0.5 2.2 1 4.6 1.4 6.9l2.7-0.4c-0.4-2.4-0.8-4.9-1.4-7.2l-2.7 0.7z"/>
							<path class="st1" d="m393.7 344.6c2.2 0.9 4.3 1.9 6.3 3.1l1.4-2.4c-2.1-1.2-4.4-2.3-6.6-3.2l-1.1 2.5z"/>
							<path class="st1" d="m430 421.7l2.7 0.3c0.3-2.4 0.4-4.8 0.5-7.3l-2.8-0.1c0 2.4-0.2 4.8-0.4 7.1z"/>
							<path class="st1" d="m414 460l2 1.9c1.7-1.7 3.2-3.7 4.7-5.7l-2.2-1.6c-1.4 1.9-2.9 3.7-4.5 5.4z"/>
							<path class="st1" d="m430.2 400.4c0.2 2.4 0.3 4.8 0.4 7.1l2.8-0.1c-0.1-2.4-0.2-4.8-0.4-7.3l-2.8 0.3z"/>
							<path class="st1" d="m427.3 435.6l2.7 0.7c0.6-2.3 1.2-4.7 1.7-7.1l-2.7-0.5c-0.5 2.3-1.1 4.6-1.7 6.9z"/>
							<path class="st1" d="m422.1 448.6l2.4 1.3c1.1-2.1 2.2-4.4 3.1-6.7l-2.6-1c-0.8 2.3-1.8 4.4-2.9 6.4z"/>
							<path class="st1" d="m406 466.4l1.2 2.5s1.3-0.6 3.1-2l-1.6-2.2c-1.6 1.1-2.7 1.7-2.7 1.7z"/>
						<path class="st1" d="m685 76.2c2.1 0.7 3.2 1.1 3.2 1.1l1-2.6s-1.1-0.4-3.3-1.1l-0.9 2.6z"/>
					<path class="st1" d="m318.7 230.8l2.5 1.2c1-2 1.9-4.1 3-6.1l-2.5-1.2c-1.1 2-2 4.1-3 6.1z"/>
					<path class="st1" d="m329.8 419.8c1.4 1.8 2.8 3.7 4.2 5.4l2.1-1.7c-1.4-1.7-2.8-3.5-4.2-5.3l-2.1 1.6z"/>
					<path class="st1" d="m314.9 396.5c1.1 2 2.2 4 3.4 6l2.4-1.4c-1.1-2-2.3-3.9-3.3-5.9l-2.5 1.3z"/>
					<path class="st1" d="m321.9 408.4c1.2 1.9 2.5 3.8 3.8 5.7l2.3-1.6c-1.3-1.9-2.6-3.8-3.8-5.6l-2.3 1.5z"/>
					<path class="st1" d="m304.1 371.2c0.7 2.2 1.5 4.4 2.3 6.5l2.6-1c-0.8-2.1-1.6-4.3-2.2-6.4l-2.7 0.9z"/>
					<path class="st1" d="m309 384.1c0.9 2.1 1.9 4.2 2.8 6.3l2.5-1.2c-1-2-1.9-4.1-2.8-6.2l-2.5 1.1z"/>
					<path class="st1" d="m353.9 172l2.2 1.6c1.4-1.8 2.7-3.7 4.1-5.5l-2.2-1.7c-1.4 1.9-2.8 3.7-4.1 5.6z"/>
					<path class="st1" d="m347.9 440.5c1.6 1.6 3.3 3.2 5 4.8l1.9-2c-1.7-1.6-3.3-3.1-4.9-4.7l-2 1.9z"/>
					<path class="st1" d="m347.9 180.4c-0.6 0.9-1.3 1.9-1.9 2.8l2.3 1.5c0.6-0.9 1.2-1.8 1.9-2.8s1.3-1.9 2-2.9l-2.3-1.6c-0.7 1.1-1.4 2.1-2 3z"/>
					<path class="st1" d="m300.4 357.9c0.5 2.2 1.1 4.5 1.7 6.7l2.7-0.7c-0.6-2.2-1.2-4.4-1.7-6.6l-2.7 0.6z"/>
					<path class="st1" d="m357.9 449.9c1.7 1.5 3.5 3 5.3 4.5l1.8-2.1c-1.7-1.4-3.5-2.9-5.2-4.4l-1.9 2z"/>
					<path class="st1" d="m331.4 206.5l2.4 1.4c1.1-1.9 2.3-3.9 3.5-5.9l-2.4-1.4c-1.2 1.9-2.3 3.9-3.5 5.9z"/>
					<path class="st1" d="m338.5 194.7l2.3 1.5c1.2-1.9 2.4-3.8 3.7-5.7l-2.3-1.5c-1.3 1.9-2.5 3.8-3.7 5.7z"/>
					<path class="st1" d="m338.5 430.5c1.5 1.7 3 3.4 4.6 5.1l2-1.9c-1.6-1.7-3.1-3.4-4.6-5l-2 1.8z"/>
					<path class="st1" d="m313.1 243.4l2.6 1.1c0.9-2.1 1.7-4.2 2.7-6.3l-2.5-1.1c-1 2.1-1.9 4.2-2.8 6.3z"/>
					<path class="st1" d="m324.8 218.5l2.4 1.3c1-2 2.1-4 3.2-6l-2.4-1.3c-1.1 2-2.1 4-3.2 6z"/>
					<path class="st1" d="m304.1 269.3l2.7 0.8c0.6-2.2 1.3-4.3 2-6.5l-2.6-0.8c-0.8 2.1-1.5 4.4-2.1 6.5z"/>
					<path class="st1" d="m308.2 256.2l2.6 0.9c0.7-2.1 1.5-4.3 2.3-6.4l-2.6-1c-0.7 2.2-1.5 4.4-2.3 6.5z"/>
					<path class="st1" d="m380.3 140.4l2 1.9c1.6-1.6 3.2-3.3 4.8-4.9l-1.9-2c-1.7 1.7-3.3 3.3-4.9 5z"/>
					<path class="st1" d="m362.2 161l2.2 1.7c1.4-1.8 2.9-3.5 4.3-5.3l-2.1-1.8c-1.5 1.9-2.9 3.6-4.4 5.4z"/>
					<path class="st1" d="m296.4 316.8c0 1.7-0.1 3.3-0.1 4.9v2h2.8v-1.9c0-1.6 0-3.2 0.1-4.9l-2.8-0.1z"/>
					<path class="st1" d="m297.9 344.3c0.3 2.3 0.7 4.6 1.1 6.8l2.7-0.5c-0.4-2.2-0.8-4.5-1.1-6.7l-2.7 0.4z"/>
					<path class="st1" d="m300.7 282.7l2.7 0.6c0.5-2.2 1-4.4 1.6-6.6l-2.7-0.7c-0.6 2.2-1.1 4.5-1.6 6.7z"/>
					<path class="st1" d="m296.6 330.6c0.1 2.3 0.3 4.6 0.5 6.9l2.7-0.3c-0.2-2.2-0.4-4.5-0.5-6.8l-2.7 0.2z"/>
					<path class="st1" d="m298.2 296.2l2.7 0.4c0.3-2.2 0.7-4.5 1.1-6.7l-2.7-0.5c-0.4 2.3-0.7 4.6-1.1 6.8z"/>
					<path class="st1" d="m296.8 309.9l2.8 0.2c0.2-2.2 0.4-4.5 0.6-6.8l-2.7-0.3c-0.4 2.4-0.6 4.7-0.7 6.9z"/>
					<path class="st1" d="m523 62.9l0.5 2.7c2.2-0.4 4.5-0.8 6.7-1.2l-0.5-2.7c-2.2 0.4-4.5 0.8-6.7 1.2z"/>
					<path class="st1" d="m604.9 61.1c2.3 0.2 4.6 0.3 6.8 0.5l0.2-2.7c-2.2-0.2-4.5-0.4-6.8-0.5l-0.2 2.7z"/>
					<path class="st1" d="m591.3 60.4c2.3 0.1 4.6 0.2 6.8 0.3l0.1-2.8c-2.3-0.1-4.5-0.2-6.9-0.3v2.8z"/>
					<path class="st1" d="m563.9 58l0.1 2.8c2.3-0.1 4.6-0.2 6.8-0.3l-0.1-2.8c-2.2 0.1-4.5 0.1-6.8 0.3z"/>
					<path class="st1" d="m577.6 60.3h6.8v-2.8h-6.9l0.1 2.8z"/>
					<path class="st1" d="m536.5 60.7l0.4 2.7c2.3-0.3 4.5-0.6 6.8-0.9l-0.3-2.7c-2.3 0.2-4.6 0.5-6.9 0.9z"/>
					<path class="st1" d="m368.6 458.7c1.8 1.4 3.7 2.8 5.5 4.1l1.6-2.2c-1.8-1.3-3.7-2.7-5.5-4.1l-1.6 2.2z"/>
					<path class="st1" d="m618.4 62.3c2.3 0.2 4.6 0.5 6.8 0.8l0.3-2.7c-2.2-0.3-4.5-0.6-6.8-0.8l-0.3 2.7z"/>
					<path class="st1" d="m509.5 65.8l0.7 2.7c2.2-0.5 4.4-1 6.6-1.5l-0.6-2.7c-2.2 0.5-4.4 1-6.7 1.5z"/>
					<path class="st1" d="m658.8 69c2.3 0.5 4.5 1.1 6.6 1.6l0.7-2.7c-2.1-0.5-4.3-1.1-6.7-1.6l-0.6 2.7z"/>
					<path class="st1" d="m672 72.3c2.4 0.7 4.6 1.3 6.5 1.9l0.8-2.6c-1.9-0.6-4.2-1.2-6.6-1.9l-0.7 2.6z"/>
					<path class="st1" d="m645.4 66.2c2.3 0.4 4.5 0.9 6.7 1.3l0.6-2.7c-2.2-0.4-4.4-0.9-6.7-1.3l-0.6 2.7z"/>
					<path class="st1" d="M632,64c2.3,0.3,4.5,0.7,6.7,1.1l0.5-2.7c-2.2-0.4-4.5-0.7-6.8-1.1L632,64z"/>
					<path class="st1" d="m550.2 59l0.3 2.7c2.3-0.2 4.5-0.4 6.8-0.6l-0.2-2.8c-2.4 0.3-4.6 0.5-6.9 0.7z"/>
					<path class="st1" d="m422.1 104.8l1.6 2.3c1.9-1.3 3.8-2.6 5.7-3.8l-1.5-2.3c-2 1.2-3.9 2.5-5.8 3.8z"/>
					<path class="st1" d="m390.1 130.7l1.9 2c1.7-1.6 3.3-3.1 5-4.6l-1.8-2.1c-1.8 1.6-3.5 3.1-5.1 4.7z"/>
					<path class="st1" d="m411 112.9l1.7 2.2c1.8-1.4 3.6-2.8 5.4-4.1l-1.6-2.2c-1.9 1.3-3.7 2.6-5.5 4.1z"/>
					<path class="st1" d="m400.3 121.5l1.8 2.1c1.7-1.5 3.5-2.9 5.2-4.4l-1.7-2.1c-1.8 1.4-3.6 2.9-5.3 4.4z"/>
					<path class="st1" d="m371 150.5l2.1 1.8c1.5-1.7 3-3.4 4.5-5.1l-2-1.9c-1.5 1.8-3.1 3.5-4.6 5.2z"/>
					<path class="st1" d="m379.8 466.7c1.9 1.3 3.9 2.6 5.8 3.7l1.5-2.3c-1.9-1.2-3.8-2.4-5.7-3.7l-1.6 2.3z"/>
					<path class="st1" d="m457.8 84.1l1.2 2.5c2.1-1 4.1-1.9 6.2-2.8l-1.1-2.5c-2.2 0.9-4.3 1.8-6.3 2.8z"/>
					<path class="st1" d="m470.3 78.6l1.1 2.6c2.1-0.9 4.2-1.7 6.3-2.5l-1-2.6c-2.1 0.7-4.2 1.6-6.4 2.5z"/>
					<path class="st1" d="m483.2 73.7l0.9 2.6c2.1-0.8 4.3-1.5 6.4-2.2l-0.9-2.6c-2.1 0.6-4.3 1.4-6.4 2.2z"/>
					<path class="st1" d="m433.6 97.3l1.4 2.4c1.9-1.2 3.9-2.4 5.8-3.5l-1.4-2.4c-1.9 1.1-3.8 2.2-5.8 3.5z"/>
					<path class="st1" d="m496.3 69.4l0.8 2.6c2.2-0.6 4.4-1.3 6.5-1.9l-0.7-2.7c-2.2 0.7-4.4 1.4-6.6 2z"/>
					<path class="st1" d="m445.5 90.4l1.3 2.4c2-1.1 4-2.1 6-3.2l-1.3-2.5c-1.9 1.1-4 2.2-6 3.3z"/>
						<path class="st1" d="m391.6 474.1c2 1.1 3.1 1.7 3.1 1.7l1.2-2.5s-1.1-0.5-3-1.6l-1.3 2.4z"/>
							<path class="st1" d="m647.8 161c0 0.1 0.1 1.4 0.5 3.6l2.7-0.5c-0.4-2-0.4-3.2-0.4-3.2l-2.8 0.1z"/>
							<path class="st1" d="m658.7 184.4c1.8 1.7 3.8 3.3 6 4.6l1.4-2.4c-2-1.2-3.9-2.6-5.5-4.2l-1.9 2z"/>
							<path class="st1" d="m671.6 192.2c2.3 0.8 4.7 1.4 7.3 1.9l0.5-2.7c-2.4-0.4-4.7-1-6.8-1.8l-1 2.6z"/>
							<path class="st1" d="m650.3 171.8c0.9 2.4 2.1 4.7 3.5 6.7l2.3-1.5c-1.3-1.9-2.3-4-3.2-6.2l-2.6 1z"/>
							<path class="st1" d="m699.9 188.7l1.2 2.5c2.2-1.1 4.4-2.4 6.4-4l-1.7-2.2c-1.9 1.4-3.9 2.7-5.9 3.7z"/>
							<path class="st1" d="m711.1 180.2l2 1.9c1.7-1.8 3.3-3.8 4.7-5.8l-2.3-1.6c-1.4 1.9-2.9 3.8-4.4 5.5z"/>
							<path class="st1" d="m686.4 192l0.1 2.8c2.6-0.1 5.1-0.4 7.5-1l-0.7-2.7c-2.2 0.5-4.6 0.8-6.9 0.9z"/>
							<path class="st1" d="m719.3 168.5l2.4 1.3c1-1.9 1.5-3.2 1.5-3.2l-2.6-1c0.1-0.1-0.4 1.1-1.3 2.9z"/>
							<path class="st1" d="m721.2 161.9s0.9 0.9 2.3 2.5l2.1-1.8c-1.5-1.7-2.4-2.6-2.4-2.6l-2 1.9z"/>
							<path class="st1" d="m732.7 380.4l2.7 0.3c0.2-2.2 0.6-4.4 1-6.7l-2.7-0.5c-0.4 2.3-0.7 4.7-1 6.9z"/>
							<path class="st1" d="m735 366.7l2.7 0.6c0.5-2.1 1-4.4 1.6-6.6l-2.7-0.7c-0.6 2.3-1.1 4.5-1.6 6.7z"/>
							<path class="st1" d="m736.1 180.4c1.3 1.8 2.6 3.7 3.8 5.6l2.3-1.5c-1.3-1.9-2.6-3.8-3.9-5.7l-2.2 1.6z"/>
							<path class="st1" d="m727.9 169.6c1.4 1.7 2.8 3.5 4.2 5.4l2.2-1.7c-1.4-1.9-2.9-3.7-4.3-5.4l-2.1 1.7z"/>
							<path class="st1" d="m756.1 216.1c0.9 2.1 1.7 4.2 2.5 6.3l2.6-0.9c-0.8-2.2-1.6-4.3-2.5-6.5l-2.6 1.1z"/>
							<path class="st1" d="m743.6 191.8c1.2 1.9 2.3 3.9 3.4 5.9l2.4-1.4c-1.1-2-2.3-4-3.5-6l-2.3 1.5z"/>
							<path class="st1" d="m764 242.1c0.4 2.2 0.8 4.5 1.1 6.7l2.7-0.4c-0.3-2.3-0.7-4.6-1.1-6.9l-2.7 0.6z"/>
							<path class="st1" d="m732.1 387.3c-0.1 1.6-0.1 3.2-0.1 4.8v2.2l2.8-0.1v-2.1c0-1.5 0-3.1 0.1-4.7l-2.8-0.1z"/>
							<path class="st1" d="m750.3 203.7c1 2 2.1 4.1 3 6.1l2.5-1.2c-1-2.1-2-4.2-3-6.2l-2.5 1.3z"/>
							<path class="st1" d="m760.7 228.9c0.7 2.2 1.3 4.4 1.8 6.5l2.7-0.7c-0.6-2.2-1.2-4.5-1.9-6.7l-2.6 0.9z"/>
							<path class="st1" d="m752.5 314.4l2.5 1.1c0.9-2.1 1.8-4.2 2.7-6.3l-2.5-1.1c-0.9 2.1-1.8 4.3-2.7 6.3z"/>
							<path class="st1" d="m762.6 289.1l2.7 0.7c0.6-2.2 1.2-4.5 1.6-6.8l-2.7-0.6c-0.5 2.3-1 4.5-1.6 6.7z"/>
							<path class="st1" d="m758.1 301.8l2.5 1.1c0.9-2.1 1.8-4.3 2.6-6.5l-2.6-0.9c-0.8 2.1-1.6 4.2-2.5 6.3z"/>
							<path class="st1" d="m765.8 255.5c0.2 2.3 0.3 4.5 0.3 6.8h2.8c0-2.3-0.1-4.6-0.3-7l-2.8 0.2z"/>
							<path class="st1" d="m732.5 401.2c0.2 2.3 0.6 4.6 1.1 6.9l2.7-0.5c-0.4-2.2-0.8-4.4-1-6.7l-2.8 0.3z"/>
							<path class="st1" d="m765.3 275.8l2.7 0.4c0.3-2.3 0.5-4.6 0.7-6.9l-2.8-0.2c-0.1 2.2-0.3 4.5-0.6 6.7z"/>
							<path class="st1" d="m735.2 414.9c0.6 2.2 1.4 4.3 2.2 6.6l2.6-1c-0.8-2.2-1.5-4.3-2.2-6.4l-2.6 0.8z"/>
							<path class="st1" d="m747.3 327.2l2.6 1c0.8-2.1 1.7-4.2 2.5-6.4l-2.6-1c-0.8 2.2-1.7 4.3-2.5 6.4z"/>
							<path class="st1" d="m738.4 353.3l2.7 0.8c0.6-2.1 1.3-4.3 2-6.5l-2.6-0.8c-0.8 2.1-1.5 4.4-2.1 6.5z"/>
							<path class="st1" d="m742.6 340.1l2.6 0.9c0.7-2.1 1.5-4.2 2.3-6.4l-2.6-1c-0.8 2.3-1.6 4.4-2.3 6.5z"/>
							<path class="st1" d="m740.2 428c0.5 1.1 1 2.1 1.5 3.2l2.5-1.2c-0.5-1-1-2.1-1.4-3.1l-2.6 1.1z"/>
						<path class="st2" d="m302.5 24.1c-12.5 0-22.6 10.1-22.6 22.6s22.6 38.9 22.6 38.9 22.6-26.4 22.6-38.9-10.1-22.6-22.6-22.6z"/>
					<g class="st3">
						<circle class="st4" cx="302.8" cy="46.6" r="10.1"/>
					</g>
						<path class="st2" d="m932.3 213.2c-10.8 0-19.6 8.8-19.6 19.6s19.6 33.8 19.6 33.8 19.6-23 19.6-33.8-8.8-19.6-19.6-19.6z"/>
					<g class="st3">
						<circle class="st4" cx="932.5" cy="232.7" r="8.7"/>
					</g>
						<path class="st2" d="m1086.8 343.6c-9 0-16.2 7.3-16.2 16.2 0 9 16.2 28 16.2 28s16.2-19 16.2-27.9c0.1-9-7.2-16.3-16.2-16.3z"/>
					<g class="st3">
						<circle class="st4" cx="1087.1" cy="359.8" r="7.2"/>
					</g>
						<path class="st2" d="m1114 241.3c-8.2 0-14.8 6.6-14.8 14.8s14.8 25.4 14.8 25.4 14.8-17.3 14.8-25.4-6.6-14.8-14.8-14.8z"/>
					<g class="st3">
						<circle class="st4" cx="1114.3" cy="256" r="6.6"/>
					</g>
						<path class="st2" d="m1141.9 228.8c-5 0-9.1 4.1-9.1 9.1s9 15.6 9 15.6 9.1-10.6 9.1-15.6c0-5.1-4-9.1-9-9.1z"/>
					<g class="st3">
						<circle class="st4" cx="1142" cy="237.8" r="4"/>
					</g>
						<path class="st2" d="m1135.8 165.6c-9 0-16.2 7.3-16.2 16.2 0 9 16.2 28 16.2 28s16.2-19 16.2-27.9c0-9-7.2-16.3-16.2-16.3z"/>
					<g class="st3">
						<circle class="st4" cx="1136.1" cy="181.8" r="7.2"/>
					</g>
						<path class="st2" d="m1194.9 196.2c-6.4 0-11.5 5.1-11.5 11.5s11.5 19.8 11.5 19.8 11.5-13.5 11.5-19.8c0-6.4-5.2-11.5-11.5-11.5z"/>
					<g class="st3">
						<circle class="st4" cx="1195" cy="207.6" r="5.1"/>
					</g>
						<path class="st2" d="m1200.4 441.3c-9.3 0-16.9 7.5-16.9 16.8s16.8 29 16.8 29 16.9-19.7 16.9-29-7.5-16.8-16.8-16.8z"/>
					<g class="st3">
						<circle class="st4" cx="1200.6" cy="458" r="7.5"/>
					</g>
						<path class="st2" d="m195.1 203.8c-10.5 0-19 8.5-19 19s19 32.8 19 32.8 19-22.2 19-32.8c0-10.5-8.5-19-19-19z"/>
					<g class="st3">
						<circle class="st4" cx="195.3" cy="222.7" r="8.5"/>
					</g>
						<path class="st2" d="m256 265.5c-7.7 0-13.9 6.2-13.9 13.9s13.9 23.9 13.9 23.9 13.9-16.2 13.9-23.9-6.2-13.9-13.9-13.9z"/>
					<g class="st3">
						<circle class="st4" cx="256.2" cy="279.2" r="6.2"/>
					</g>
						<path class="st2" d="m365.8 319.3c-10.7 0-19.4 8.7-19.4 19.4s19.4 33.4 19.4 33.4 19.4-22.7 19.4-33.4-8.7-19.4-19.4-19.4z"/>
					<g class="st3">
						<circle class="st4" cx="366.1" cy="338.6" r="8.6"/>
					</g>
						<path class="st2" d="m649.1 113.6c-10.7 0-19.4 8.7-19.4 19.4s19.4 33.4 19.4 33.4 19.4-22.7 19.4-33.4-8.6-19.4-19.4-19.4z"/>
					<g class="st3">
						<circle class="st4" cx="649.4" cy="132.9" r="8.6"/>
					</g>
						<path class="st2" d="m621.8 216.6c-10.7 0-19.4 8.7-19.4 19.4s19.4 33.4 19.4 33.4 19.4-22.7 19.4-33.4-8.6-19.4-19.4-19.4z"/>
					<g class="st3">
						<circle class="st4" cx="622.1" cy="235.9" r="8.6"/>
					</g>
						<path class="st2" d="m749.6 411.3c-10.7 0-19.4 8.7-19.4 19.4s19.4 33.4 19.4 33.4 19.4-22.7 19.4-33.4-8.6-19.4-19.4-19.4z"/>
					<g class="st3">
						<circle class="st4" cx="749.9" cy="430.6" r="8.6"/>
					</g>
						<path class="st2" d="m722 128.1c-8.2 0-14.9 6.7-14.9 14.9s14.9 25.7 14.9 25.7 14.9-17.5 14.9-25.7-6.7-14.9-14.9-14.9z"/>
					<g class="st3">
						<circle class="st4" cx="722.2" cy="142.9" r="6.6"/>
					</g>
						<path class="st2" d="m761.4 112.7c-6.5 0-11.7 5.2-11.7 11.7s11.7 20.2 11.7 20.2 11.7-13.7 11.7-20.1c0-6.5-5.2-11.8-11.7-11.8z"/>
					<g class="st3">
						<circle class="st4" cx="761.6" cy="124.3" r="5.2"/>
					</g>
						<path class="st2" d="m698.5 73c-9.6 0-17.4 7.8-17.4 17.4s17.4 30 17.4 30 17.4-20.4 17.4-30-7.8-17.4-17.4-17.4z"/>
					<g class="st3">
						<circle class="st4" cx="698.7" cy="90.3" r="7.8"/>
					</g>
						<path class="st2" d="m399.5 452.2c-8.5 0-15.5 6.9-15.5 15.5 0 8.5 15.5 26.7 15.5 26.7s15.5-18.1 15.5-26.7c0-8.5-6.9-15.5-15.5-15.5z"/>
					<g class="st3">
						<circle class="st4" cx="399.7" cy="467.6" r="6.9"/>
					</g>
					<path class="st1" d="m828.7 106.9c1.8 0.4 3.7 0.8 5.6 1.3l0.5-1.9c-1.9-0.5-3.8-1-5.7-1.4l-0.4 2z"/>
					<path class="st1" d="m872.2 122.2c1.8 0.9 3.4 1.8 5.1 2.7l0.9-1.7c-1.7-0.9-3.4-1.8-5.2-2.7l-0.8 1.7z"/>
					<path class="st1" d="m851.6 111.4l-0.6 1.8c0.8 0.3 1.6 0.6 2.4 0.8 1 0.4 2 0.7 3.1 1.1l0.7-1.8c-1-0.4-2-0.8-3.1-1.1-0.9-0.2-1.7-0.5-2.5-0.8z"/>
					<path class="st1" d="m861.7 117.4c1.8 0.8 3.6 1.5 5.3 2.3l0.8-1.8c-1.7-0.8-3.5-1.6-5.3-2.3l-0.8 1.8z"/>
					<path class="st1" d="m839.9 109.8c1.8 0.5 3.6 1.1 5.5 1.7l0.6-1.8c-1.9-0.6-3.8-1.2-5.6-1.7l-0.5 1.8z"/>
					<path class="st1" d="m782.7 104.7l0.6 1.8c1.7-0.6 3.6-1.1 5.5-1.5l-0.4-1.9c-2 0.5-3.9 1-5.7 1.6z"/>
					<path class="st1" d="m772.1 110.2l1.2 1.5c0.9-0.7 2.4-1.8 4.7-3l-0.9-1.7c-2.4 1.2-4 2.4-5 3.2z"/>
					<path class="st1" d="m794.2 102.3l0.2 1.9c1.8-0.2 3.8-0.3 5.7-0.4l-0.1-1.9c-1.9 0.1-3.9 0.2-5.8 0.4z"/>
					<path class="st1" d="m817.4 104.8c1.8 0.3 3.7 0.6 5.7 0.9l0.3-1.9c-2-0.4-3.9-0.7-5.8-0.9l-0.2 1.9z"/>
					<path class="st1" d="m805.9 103.8c1.9 0.1 3.8 0.2 5.7 0.4l0.2-1.9c-2-0.2-4-0.3-5.9-0.4v1.9z"/>
					<path class="st1" d="m930.9 190.2l-1.9 0.4c0.4 1.9 0.7 3.8 1 5.7l1.9-0.3c-0.3-1.9-0.6-3.8-1-5.8z"/>
					<path class="st1" d="m927.7 178.9l-1.8 0.6c0.6 1.8 1.2 3.6 1.7 5.5l1.9-0.5c-0.5-1.8-1.1-3.7-1.8-5.6z"/>
					<path class="st1" d="m930.5 202c0.1 1.4 0.1 2.6 0.1 3.5 0 1.4-0.1 2.1-0.1 2.1l1.9 0.1s0.1-0.8 0.1-2.3c0-1 0-2.2-0.1-3.7l-1.9 0.3z"/>
					<path class="st1" d="m882.3 127.8c1.7 1 3.3 2.1 4.8 3.1l1.1-1.6c-1.6-1.1-3.2-2.1-4.9-3.2l-1 1.7z"/>
					<path class="st1" d="m921.4 169c0.9 1.7 1.7 3.5 2.4 5.2l1.8-0.8c-0.8-1.8-1.6-3.6-2.5-5.3l-1.7 0.9z"/>
					<path class="st1" d="m891.8 134.3c1.5 1.2 3.1 2.4 4.5 3.6l1.2-1.5c-1.5-1.2-3-2.4-4.6-3.6l-1.1 1.5z"/>
					<path class="st1" d="m900.6 141.7c1.4 1.3 2.8 2.7 4.1 4l1.4-1.3c-1.3-1.4-2.7-2.8-4.2-4.1l-1.3 1.4z"/>
					<path class="st1" d="m908.6 149.9c1.2 1.5 2.5 3 3.6 4.5l1.5-1.2c-1.2-1.5-2.4-3.1-3.7-4.6l-1.4 1.3z"/>
					<path class="st1" d="m915.6 159.1c1.1 1.6 2.1 3.2 3.1 4.9l1.7-1c-1-1.7-2-3.3-3.1-5l-1.7 1.1z"/>
					<path class="st1" d="m941.8 78.2c1.9 0.2 3.8 0.5 5.8 0.7l0.2-1.9c-1.9-0.2-3.9-0.5-5.8-0.7l-0.2 1.9z"/>
					<path class="st1" d="m883.9 73.2v1.9c1.9 0 3.8-0.1 5.8-0.1v-1.9c-2 0.1-3.9 0.1-5.8 0.1z"/>
					<path class="st1" d="m895.5 75.1c1.9 0 3.8 0.1 5.8 0.1l0.1-1.9c-2-0.1-3.9-0.1-5.8-0.1l-0.1 1.9z"/>
					<path class="st1" d="m872.2 73.6l0.1 1.9c1.9-0.1 3.8-0.2 5.8-0.2l-0.1-1.9c-1.9 0-3.8 0.1-5.8 0.2z"/>
					<path class="st1" d="m930.2 77c1.9 0.2 3.8 0.4 5.8 0.6l0.2-1.9c-1.9-0.2-3.9-0.4-5.8-0.6l-0.2 1.9z"/>
					<path class="st1" d="m860.6 74.4l0.2 1.9c1.9-0.2 3.8-0.3 5.8-0.4l-0.1-1.9c-2 0.1-4 0.2-5.9 0.4z"/>
					<path class="st1" d="m907.1 75.5c1.9 0.1 3.8 0.2 5.8 0.3l0.1-1.9c-2-0.1-3.9-0.2-5.8-0.3l-0.1 1.9z"/>
					<path class="st1" d="m762.3 107.4l1.4 1.4s1.4-1.4 4.4-3.6l-1.1-1.6c-3.2 2.3-4.6 3.8-4.7 3.8z"/>
					<path class="st1" d="m918.7 76.1c1.9 0.1 3.8 0.3 5.8 0.4l0.2-1.9c-2-0.2-3.9-0.3-5.8-0.4l-0.2 1.9z"/>
					<path class="st1" d="m803.5 85.7l0.6 1.8c1.8-0.6 3.6-1.2 5.5-1.8l-0.6-1.9c-1.8 0.7-3.7 1.3-5.5 1.9z"/>
					<path class="st1" d="m792.6 89.7l0.7 1.8c1.7-0.7 3.5-1.4 5.4-2.1l-0.7-1.8c-1.9 0.7-3.7 1.4-5.4 2.1z"/>
					<path class="st1" d="m782 94.6l0.9 1.7c1.6-0.8 3.4-1.7 5.2-2.5l-0.8-1.8c-1.9 0.9-3.7 1.7-5.3 2.6z"/>
					<path class="st1" d="m849 75.6l0.2 1.9c1.9-0.2 3.8-0.5 5.8-0.7l-0.2-1.9c-1.9 0.3-3.9 0.5-5.8 0.7z"/>
					<path class="st1" d="m771.8 100.3l1 1.6c1.6-1 3.2-2 4.9-3l-0.9-1.7c-1.7 1.1-3.4 2.1-5 3.1z"/>
					<path class="st1" d="m837.5 77.3l0.3 1.9c1.9-0.3 3.8-0.6 5.7-0.9l-0.3-1.9c-1.9 0.3-3.8 0.6-5.7 0.9z"/>
					<path class="st1" d="m826.1 79.5l0.4 1.9c1.8-0.4 3.7-0.8 5.7-1.2l-0.4-1.9c-2 0.4-3.9 0.8-5.7 1.2z"/>
					<path class="st1" d="m814.7 82.3l0.5 1.9c1.8-0.5 3.7-1 5.6-1.4l-0.5-1.9c-1.9 0.4-3.8 0.9-5.6 1.4z"/>
					<path class="st1" d="m1010.2 90.5c1.9 0.5 3.8 0.9 5.6 1.4l0.5-1.9c-1.9-0.5-3.7-1-5.6-1.4l-0.5 1.9z"/>
					<path class="st1" d="m1065.2 108.4c1.8 0.8 3.6 1.6 5.3 2.3l0.8-1.8c-1.7-0.8-3.5-1.6-5.3-2.3l-0.8 1.8z"/>
					<path class="st1" d="m1105.6 130.8c1.6 1.2 3.1 2.4 4.6 3.5l1.2-1.5c-1.5-1.2-3-2.3-4.6-3.6l-1.2 1.6z"/>
					<path class="st1" d="m1086 118.5c1.7 1 3.4 1.9 5 2.8l1-1.7c-1.6-1-3.3-1.9-5.1-2.9l-0.9 1.8z"/>
					<path class="st1" d="m1075.8 113.2c1.8 0.9 3.5 1.7 5.2 2.6l0.9-1.7c-1.7-0.9-3.4-1.7-5.2-2.6l-0.9 1.7z"/>
					<path class="st1" d="m1096 124.3c1.7 1.1 3.3 2.1 4.8 3.2l1.1-1.6c-1.6-1.1-3.2-2.1-4.9-3.2l-1 1.6z"/>
					<path class="st1" d="m1129.8 155.1c1.4 2.2 2 3.5 2.2 3.9l0.7 0.6 0.2-0.9 0.9-0.4c-0.2-0.5-0.9-2-2.3-4.2l-1.7 1z"/>
					<path class="st1" d="m1122.8 146c1.3 1.5 2.6 2.9 3.7 4.4l1.5-1.2c-1.2-1.5-2.4-3-3.8-4.5l-1.4 1.3z"/>
					<path class="st1" d="m1114.6 138c1.5 1.3 2.9 2.6 4.2 3.9l1.4-1.4c-1.4-1.3-2.8-2.7-4.3-4l-1.3 1.5z"/>
					<path class="st1" d="m964.8 81.4c1.9 0.3 3.8 0.6 5.7 0.9l0.3-1.9c-1.9-0.3-3.8-0.6-5.7-0.9l-0.3 1.9z"/>
					<path class="st1" d="m987.6 85.5l5.7 1.2 0.4-1.9-5.7-1.2-0.4 1.9z"/>
					<path class="st1" d="m976.2 83.3c1.9 0.3 3.8 0.7 5.7 1l0.4-1.9c-1.9-0.4-3.8-0.7-5.7-1l-0.4 1.9z"/>
					<path class="st1" d="m1054.5 104.1l5.4 2.1 0.7-1.8-5.4-2.1-0.7 1.8z"/>
					<path class="st1" d="m998.9 87.8c1.9 0.4 3.8 0.9 5.7 1.3l0.4-1.9c-1.9-0.4-3.8-0.9-5.7-1.3l-0.4 1.9z"/>
					<path class="st1" d="m953.3 79.7c1.9 0.3 3.8 0.5 5.7 0.8l0.3-1.9c-1.9-0.3-3.9-0.6-5.8-0.8l-0.2 1.9z"/>
					<path class="st1" d="m1043.6 100.2c1.9 0.6 3.7 1.3 5.5 1.9l0.7-1.8c-1.8-0.6-3.6-1.3-5.5-1.9l-0.7 1.8z"/>
					<path class="st1" d="m1021.4 93.4c1.9 0.5 3.8 1 5.6 1.6l0.5-1.9c-1.8-0.5-3.7-1.1-5.6-1.6l-0.5 1.9z"/>
					<path class="st1" d="m1032.6 96.6c1.9 0.6 3.7 1.2 5.5 1.7l0.6-1.8c-1.8-0.6-3.7-1.2-5.6-1.7l-0.5 1.8z"/>
					<path class="st1" d="m1189.2 184.2c1.6 0.9 3.3 1.9 5 2.9l1-1.6c-1.7-1-3.4-2-5-3l-1 1.7z"/>
					<path class="st1" d="m1178.9 179c1.7 0.8 3.4 1.6 5.2 2.5l0.9-1.7c-1.8-0.9-3.5-1.8-5.3-2.6l-0.8 1.8z"/>
					<path class="st1" d="m1224.9 213.1c1.3 1.4 2.5 2.9 3.7 4.4l1.5-1.2c-1.2-1.5-2.5-3-3.8-4.5l-1.4 1.3z"/>
					<path class="st1" d="m1199 190.3c1.6 1.1 3.1 2.2 4.7 3.3l1.2-1.6c-1.6-1.2-3.2-2.3-4.8-3.4l-1.1 1.7z"/>
					<path class="st1" d="m1216.9 204.8c1.4 1.3 2.7 2.7 4.1 4.1l1.4-1.3c-1.4-1.4-2.7-2.8-4.1-4.1l-1.4 1.3z"/>
					<path class="st1" d="m1208.3 197.2c1.5 1.2 2.9 2.4 4.4 3.7l1.3-1.5c-1.5-1.3-3-2.6-4.5-3.8l-1.2 1.6z"/>
					<path class="st1" d="m1157.2 171.1c1.7 0.5 3.6 1 5.5 1.6l0.6-1.8c-1.9-0.6-3.8-1.2-5.6-1.7l-0.5 1.9z"/>
					<path class="st1" d="m1168.2 174.6c1.7 0.6 3.5 1.3 5.4 2.1l0.7-1.8c-1.9-0.8-3.7-1.5-5.5-2.1l-0.6 1.8z"/>
					<path class="st1" d="m1262.7 302.3l1.9-0.3c-0.3-1.9-0.6-3.8-1-5.8l-1.9 0.3c0.3 2 0.7 3.9 1 5.8z"/>
					<path class="st1" d="m1264.2 313.8l1.9-0.2c-0.2-1.9-0.4-3.8-0.7-5.8l-1.9 0.3c0.2 1.8 0.5 3.8 0.7 5.7z"/>
					<path class="st1" d="m1265.1 325.3l1.9-0.1c-0.1-1.9-0.2-3.9-0.4-5.8l-1.9 0.2c0.2 1.9 0.3 3.8 0.4 5.7z"/>
					<path class="st1" d="m1260.6 290.9l1.9-0.4-1.2-5.7-1.9 0.4 1.2 5.7z"/>
					<path class="st1" d="m1146 168.7s2.1 0.3 5.7 1l0.4-1.9c-3.7-0.8-5.8-1-5.8-1.1l-0.3 2z"/>
					<path class="st1" d="m1253.1 256.8c-0.7-1.8-1.4-3.6-2.2-5.4l-1.8 0.8c0.7 1.7 1.5 3.5 2.2 5.4l1.8-0.8z"/>
					<path class="st1" d="m1257.4 276.8c0.2 0.9 0.5 1.8 0.7 2.8l1.9-0.5c-0.2-0.9-0.5-1.8-0.7-2.8s-0.5-1.9-0.8-2.9l-1.9 0.5c0.3 1 0.6 2 0.8 2.9z"/>
					<path class="st1" d="m1256.9 267.9c-0.6-1.9-1.2-3.7-1.8-5.6l-1.8 0.6c0.6 1.8 1.2 3.6 1.8 5.5l1.8-0.5z"/>
					<path class="st1" d="m1257.3 393.8l1.8 0.6c0.6-1.8 1.1-3.7 1.6-5.6l-1.9-0.5c-0.4 1.9-0.9 3.7-1.5 5.5z"/>
					<path class="st1" d="m1260.4 382.7l1.9 0.4c0.4-1.9 0.9-3.8 1.3-5.7l-1.9-0.4c-0.5 2-0.9 3.9-1.3 5.7z"/>
					<path class="st1" d="m1253.6 404.8l1.8 0.7c0.7-1.8 1.4-3.6 2-5.5l-1.8-0.6c-0.7 1.8-1.4 3.6-2 5.4z"/>
					<path class="st1" d="m1265.4 331.1c0.1 2 0.1 3.9 0.1 5.8h1.9c0-1.9 0-3.9-0.1-5.8h-1.9z"/>
					<path class="st1" d="m1265.2 348.4l1.9 0.1c0.1-1.9 0.2-3.9 0.2-5.8h-1.9c0 1.9-0.1 3.8-0.2 5.7z"/>
					<path class="st1" d="m1262.7 371.4l1.9 0.3c0.3-1.9 0.6-3.8 0.9-5.8l-1.9-0.3c-0.3 2-0.6 3.9-0.9 5.8z"/>
					<path class="st1" d="m1264.3 359.9l1.9 0.2c0.2-1.9 0.4-3.8 0.5-5.8l-1.9-0.2c-0.1 2-0.3 3.9-0.5 5.8z"/>
					<path class="st1" d="m1232.1 222.1c1.1 1.5 2.2 3.1 3.3 4.7l1.6-1.1c-1.1-1.6-2.2-3.2-3.4-4.8l-1.5 1.2z"/>
					<path class="st1" d="m1238.6 231.7c1 1.6 2 3.3 2.9 5l1.7-1c-1-1.7-2-3.4-3-5l-1.6 1z"/>
					<path class="st1" d="m1237.6 435.4l1.6 1.1c1-1.5 2.1-3.1 3.2-4.9l-1.6-1c-1.1 1.7-2.2 3.4-3.2 4.8z"/>
					<path class="st1" d="m1230.7 444.6l1.5 1.3c1.2-1.4 2.4-3 3.7-4.6l-1.5-1.2c-1.3 1.6-2.6 3.1-3.7 4.5z"/>
					<path class="st1" d="m1244.3 241.7c0.9 1.7 1.7 3.4 2.5 5.2l1.8-0.8c-0.8-1.8-1.7-3.5-2.6-5.2l-1.7 0.8z"/>
					<path class="st1" d="m1249 415.4l1.8 0.8c0.8-1.7 1.6-3.5 2.4-5.3l-1.8-0.8c-0.8 1.8-1.6 3.6-2.4 5.3z"/>
					<path class="st1" d="m1243.7 425.6l1.7 1c0.9-1.6 1.9-3.3 2.8-5.1l-1.7-0.9c-1 1.7-1.9 3.4-2.8 5z"/>
					<path class="st1" d="m1058.3 293.8l-0.3 0.9 1.8 0.6 0.3-0.9c0.6-1.5 1.1-3.1 1.8-4.5l-1.8-0.8c-0.7 1.6-1.3 3.2-1.8 4.7z"/>
					<path class="st1" d="m1057.7 323.9c0.5 1.8 1.2 3.7 1.9 5.6l1.8-0.7c-0.7-1.8-1.4-3.6-1.9-5.4l-1.8 0.5z"/>
					<path class="st1" d="m1062.1 334.8c0.9 1.7 1.9 3.4 2.9 5.1l1.6-1c-1-1.6-2-3.3-2.8-5l-1.7 0.9z"/>
					<path class="st1" d="m1057.6 312.1l-1.9 0.1c0.1 1.9 0.4 3.9 0.7 5.9l1.9-0.3c-0.4-1.9-0.6-3.8-0.7-5.7z"/>
					<path class="st1" d="m1058.3 300.8l-1.9-0.4c-0.4 1.9-0.6 3.9-0.8 5.9l1.9 0.1c0.2-1.8 0.5-3.7 0.8-5.6z"/>
					<path class="st1" d="m1077.9 266.1l1.1 1.6c1.5-1.1 3.2-2.1 4.8-3l-0.9-1.7c-1.7 0.9-3.4 1.9-5 3.1z"/>
					<path class="st1" d="m1088.4 260.6l0.6 1.8c3.2-1.1 5.4-1.3 5.4-1.3l-0.2-1.9c-0.1-0.1-2.3 0.1-5.8 1.4z"/>
					<path class="st1" d="m1069.2 274.1l1.5 1.2c1.2-1.5 2.5-2.9 3.9-4.1l-1.3-1.4c-1.4 1.4-2.8 2.8-4.1 4.3z"/>
					<path class="st1" d="m1062.6 283.9l1.7 0.9c0.9-1.7 1.9-3.4 2.9-4.9l-1.6-1.1-3 5.1z"/>
					<path class="st1" d="m1069.9 343.7l-1.6 1.2c2.5 3.4 3.1 4 3.6 4 0.1 0 0.2 0 0.3-0.1l-0.3-0.9 0.7-0.7c0.1-0.1-1.1-1.3-2.7-3.5z"/>
					<path class="st1" d="m1175.5 251.8c1.4 1.2 2.9 2.5 4.3 3.8l1.3-1.4c-1.4-1.3-2.9-2.6-4.4-3.9l-1.2 1.5z"/>
					<path class="st1" d="m1166.4 244.8c1.6 1.1 3.1 2.2 4.7 3.4l1.2-1.5c-1.6-1.2-3.2-2.4-4.7-3.5l-1.2 1.6z"/>
					<path class="st1" d="m1156.5 238.9s1.9 0.9 5 2.8l1-1.7c-3.2-1.9-5.1-2.8-5.2-2.9l-0.8 1.8z"/>
					<path class="st1" d="m1184 259.7l3.9 4.2 1.4-1.3c-1.3-1.5-2.6-2.9-4-4.3l-1.3 1.4z"/>
					<path class="st1" d="m1218.7 337l1.9-0.2c-0.2-2-0.4-3.9-0.6-5.8l-1.9 0.3c0.2 1.8 0.4 3.7 0.6 5.7z"/>
					<path class="st1" d="m1216.6 313.8c-0.5-1.9-1-3.8-1.6-5.6l-1.8 0.6c0.6 1.8 1.1 3.7 1.6 5.5l1.8-0.5z"/>
					<path class="st1" d="m1219.5 348.5l1.9-0.1c-0.1-1.9-0.2-3.8-0.4-5.8l-1.9 0.1c0.2 2 0.3 4 0.4 5.8z"/>
					<path class="st1" d="m1191.6 268.3c1.2 1.5 2.4 3 3.5 4.6l1.6-1.1c-1.1-1.6-2.3-3.1-3.6-4.6l-1.5 1.1z"/>
					<path class="st1" d="m1217.2 325.6l1.9-0.3c-0.3-2-0.7-3.9-1.1-5.7l-1.9 0.4c0.4 1.7 0.8 3.6 1.1 5.6z"/>
					<path class="st1" d="m1219.8 354.3c0.1 2 0.1 3.9 0.1 5.8h1.9c0-1.9-0.1-3.8-0.1-5.8h-1.9z"/>
					<path class="st1" d="m1217.5 394.7l1.9 0.3c0.3-1.8 0.6-3.8 0.8-5.8l-1.9-0.2c-0.2 1.9-0.5 3.8-0.8 5.7z"/>
					<path class="st1" d="m1219 383.2l1.9 0.2c0.2-1.9 0.3-3.8 0.5-5.8l-1.9-0.1c-0.2 1.9-0.3 3.9-0.5 5.7z"/>
					<path class="st1" d="m1219.8 371.7l1.9 0.1c0.1-1.9 0.1-3.8 0.1-5.8h-1.9c0 1.9-0.1 3.8-0.1 5.7z"/>
					<path class="st1" d="m1215.2 405.9l1.9 0.5c0.5-1.8 0.9-3.7 1.3-5.7l-1.9-0.4c-0.4 2-0.9 3.9-1.3 5.6z"/>
					<path class="st1" d="m1211 297.2l-1.8 0.7c0.7 1.8 1.4 3.6 2.1 5.4l1.8-0.7c-0.6-1.8-1.3-3.6-2.1-5.4z"/>
					<path class="st1" d="m1206.6 427.1l1.6 1c1-1.5 2-3.3 2.9-5.2l-1.7-0.9c-0.9 1.9-1.9 3.6-2.8 5.1z"/>
					<path class="st1" d="m1211.7 416.9l1.8 0.7c0.7-1.7 1.3-3.6 2-5.5l-1.8-0.6c-0.7 1.9-1.4 3.7-2 5.4z"/>
					<path class="st1" d="m1208.6 291.8c-0.8-1.7-1.7-3.5-2.6-5.2l-1.7 0.9c0.9 1.7 1.8 3.4 2.6 5.2l1.7-0.9z"/>
					<path class="st1" d="m1198.4 277.6c1.1 1.6 2.1 3.3 3.1 4.9l1.7-1c-1-1.7-2-3.3-3.1-5l-1.7 1.1z"/>
		<circle class="st5" cx="967.8" cy="194.7" r="3.7"/>
		<circle class="st5" cx="889.7" cy="235.5" r="3.7"/>
		<circle class="st5" cx="883.9" cy="196.1" r="3.7"/>
		<circle class="st5" cx="956.3" cy="135.3" r="3.7"/>
		<circle class="st5" cx="901.4" cy="104.9" r="3.7"/>
		<circle class="st5" cx="867.8" cy="137.9" r="3.7"/>
		<circle class="st5" cx="808.9" cy="144.6" r="3.7"/>
		<circle class="st5" cx="741.3" cy="85.7" r="3.7"/>
		<circle class="st5" cx="594.7" cy="328.2" r="3.7"/>
		<circle class="st5" cx="732.7" cy="266" r="3.7"/>
		<circle class="st5" cx="344.5" cy="397.2" r="3.7"/>
		<circle class="st5" cx="169.1" cy="262.3" r="3.7"/>
		<circle class="st5" cx="222.7" cy="98.4" r="3.7"/>
		<circle class="st5" cx="259.2" cy="140" r="3.7"/>
		<circle class="st5" cx="186.9" cy="177.2" r="3.7"/>
		<circle class="st5" cx="268.9" cy="100.2" r="3.7"/>
		<circle class="st5" cx="619.6" cy="189.6" r="3.7"/>
		<circle class="st5" cx="995.6" cy="262.3" r="3.7"/>
		<circle class="st5" cx="1057" cy="248.2" r="3.7"/>
		<circle class="st5" cx="1098" cy="319.5" r="3.7"/>
		<circle class="st5" cx="1126.1" cy="383.4" r="3.7"/>
		<circle class="st5" cx="1243.7" cy="398.1" r="3.7"/>
		<circle class="st5" cx="1129.8" cy="490.8" r="3.7"/>
		<circle class="st5" cx="1193.1" cy="520.7" r="3.7"/>
		<circle class="st5" cx="1252.6" cy="479.3" r="3.7"/>
		<circle class="st5" cx="1083.8" cy="178.3" r="3.7"/>
		<circle class="st5" cx="1089" cy="221" r="3.7"/>
		<circle class="st5" cx="970.8" cy="314.3" r="3.7"/>
		<circle class="st5" cx="317.3" cy="349.9" r="3.7"/>
		<circle class="st5" cx="357.9" cy="507.7" r="3.7"/>
		<circle class="st5" cx="385.8" cy="551.9" r="3.7"/>
		<circle class="st5" cx="699.9" cy="387.3" r="3.7"/>
		<circle class="st5" cx="731.1" cy="488.7" r="3.7"/>
</svg>
